<?xml version="1.0" standalone="no"?>
<!DOCTYPE svg PUBLIC "-//W3C//DTD SVG 1.1//EN" "http://www.w3.org/Graphics/SVG/1.1/DTD/svg11.dtd">
<svg xmlns="http://www.w3.org/2000/svg">
<metadata>Copyright (C) 2020 by original authors @ fontello.com</metadata>
<defs>
<font id="community" horiz-adv-x="1000" >
<font-face font-family="community" font-weight="400" font-stretch="normal" units-per-em="1000" ascent="850" descent="-150" />
<missing-glyph horiz-adv-x="1000" />
<glyph glyph-name="pagos" unicode="&#xe800;" d="M500 623c0 0 0 0 0 0-50 0-100 0-150 0-16 0-27-6-28-23-2-18 9-25 25-27 2 0 4 0 6 0 99 0 197-1 296 0 21 0 32 10 32 25-1 16-13 24-33 25-50 0-99 0-148 0z m-240 124c17-23 34-45 54-65 7-8 21-14 33-14 51-1 101-1 152-1 52 0 104 0 155 1 10 0 21 2 28 8 30 26 55 57 70 94 16 41-1 68-45 70-8 0-16 0-24-3-49-19-98-38-147-57-25-10-47-10-72 1-49 20-98 40-148 56-45 15-79-15-70-58 2-11 7-23 14-32z m-126-847c40-27 87-34 134-36 77-3 154-1 231-1 0-1 0-2 0-3 59 0 118-3 177 0 50 3 100 9 148 21 65 15 100 66 103 132 4 87-18 167-53 245-44 100-101 191-188 259-9 7-23 12-34 12-100 1-199 0-298 1-18 0-32-5-46-16-71-61-125-136-165-220-45-93-78-188-68-294 5-42 22-76 59-100z m269 229c9-15 20-27 33-36 13-8 28-13 46-13 6 0 13 1 20 2 6 1 13 4 18 7 6 3 10 7 14 12 4 5 6 12 6 20 0 9-4 17-13 24-9 7-20 14-33 20-13 7-27 14-42 21-15 7-29 15-43 25-13 10-24 21-32 35-9 13-13 29-13 49 0 15 2 28 8 41 5 12 12 23 21 32 9 10 19 17 32 23 12 7 25 10 39 12v45h47v-45c20-5 38-13 54-24 17-11 30-25 39-44l-59-35c-8 11-16 20-26 27-9 6-21 10-35 10-5 0-10-1-16-2-6-2-11-4-16-7-4-3-8-6-12-11-3-4-4-9-4-16 0-9 4-18 13-25 8-7 19-14 32-20 13-7 27-14 43-21 15-7 29-15 42-25 13-9 24-21 33-34 8-13 13-30 13-49 0-16-3-31-8-44-6-12-13-23-22-33-9-9-19-17-32-23-12-6-25-11-39-13v-46h-47v46c-27 2-50 10-71 24-20 14-37 32-50 55l60 36z" horiz-adv-x="1000" />

<glyph glyph-name="vencido" unicode="&#xe801;" d="M466 608c12 3 23 5 34 5 28 0 51-7 71-21 20-14 37-32 53-55l120 71c-19 39-45 69-79 91-34 22-70 38-110 50v92h-97v-92c-28-4-55-12-80-25-14-7-27-14-39-23l102-102c8 4 16 7 25 9z m-251 93l-77-77 116-116c2-31 11-59 26-82 17-27 39-51 66-71 27-20 56-37 87-52 17-7 33-15 49-23l129-129c-2-7-5-14-10-20-7-10-17-19-28-26-12-6-24-11-38-14-14-2-28-4-40-4-37 0-69 9-96 27-26 18-49 43-66 74l-122-74c27-47 61-85 103-113 42-28 90-45 144-50v-92h97v92c29 6 56 15 81 28 25 13 47 28 65 48 6 5 11 12 16 18l72-72 87 88-661 640z" horiz-adv-x="1000" />

<glyph glyph-name="administracion" unicode="&#xe802;" d="M91-41c173 0 345 0 518 1 12 0 25 1 38 4 14 4 18 16 12 30-6 15-15 6-22 2-32-13-57-8-77 20-18 26-35 52-49 81-22 43-18 59 18 92 13 12 13 15-1 26-23 16-32 39-28 66 1 5 2 10 3 21-25-6-47-9-69-15-56-17-111-17-167 1-98 33-207-22-242-120-15-41-15-85-14-128 1-57 25-81 80-81z m261 394c110 0 193 82 193 192 0 113-81 197-193 197-109 0-193-85-193-193 0-112 83-195 193-196z m616-198c-33 26-29 79 7 99 15 9 18 16 10 32-10 18-21 36-31 54-13 20-22 22-43 10-8-4-17-10-25-8-36 5-56 30-58 66 0 13-5 20-19 20-11 0-23 0-34 0 0 0 0 1 0 2-9 0-18 0-26 0-31 0-37-5-35-36 0-17-6-28-22-34-4-1-8-3-11-5-19-17-38-17-58-1-9 8-20 8-27-3-14-23-27-46-40-70-6-10-3-20 8-25 23-11 32-27 31-54 0-25-5-42-28-52-14-6-17-16-10-29 10-19 21-38 33-57 10-16 19-18 36-9 19 10 36 8 54-3 21-13 35-29 34-55 0-14 8-21 22-22 25 0 50 0 74 1 12 0 19 7 18 18-3 26 5 42 30 55 23 13 40 17 62 1 11-8 20-5 27 7 10 17 21 33 30 50 15 26 14 30-9 48z m-197-29c-42 0-76 34-75 76 0 42 35 78 76 78 41 0 77-36 77-78-1-42-36-76-78-76z" horiz-adv-x="1000" />

<glyph glyph-name="seguridad" unicode="&#xe803;" d="M800 265c-46 43-90 49-144 17-18-10-36-21-55-30-65-31-130-32-195 2-22 11-45 22-67 35-41 24-80 16-116-9-20-14-38-35-50-57-46-79-56-167-48-257 4-44 29-78 71-92 26-10 55-15 83-15 75-2 150-1 225-1 75 0 150-1 226 0 17 0 35 2 52 6 59 13 96 58 99 118 2 58-3 114-19 169-13 42-29 83-62 114z m-160-234c-5-3-13-4-18-2-33 13-55 60-44 93 1 3 4 6 6 9 22 15 70 16 89-1 8-6 8-21 11-32 1-34-20-51-44-67z m44 493c-12-4-24-8-36-12-85-26-171-38-259-15-29 8-58 17-94 28 3-38 2-72 11-103 37-133 190-189 308-114 74 47 98 118 92 202-2 14-8 19-22 14z m39 70c27 34 52 69 82 108-12 2-19 3-25 4-18 3-37 5-55 9-61 16-111 52-158 93-50 44-68 45-113-3-60-62-131-96-217-100-20-1-23-6-15-24 13-26 26-52 39-78 7-15 17-18 34-15 34 6 69 12 104 16 102 11 203 4 304-13 6-1 17-1 20 3z m-183 52c-7-5-13-12-21-15-9-2-21-4-28 0-29 16-53 37-48 73 1 35-2 30 29 44 32 13 59 0 87-9 4-1 8-7 9-11 5-31 3-62-28-82z m-247-84c87-75 309-63 415 1-77 32-369 30-415-1z" horiz-adv-x="1000" />

<glyph glyph-name="recibos" unicode="&#xe804;" d="M859 786c0 8-1 17-3 25-8 24-22 27-39 9-20-21-38-43-57-65-10-12-19-13-31-3-27 23-55 45-82 67-18 15-31 15-49 0-23-19-46-38-69-57-26-22-34-22-59 1-21 18-42 35-63 52-25 22-34 21-60 0-21-17-41-34-61-51-32-27-31-26-58 6-16 19-34 37-54 52-18 14-33 5-34-18 0-7 0-14 0-22 0-142 0-284 0-425 0 0 0 0 0 0 0-146 0-292 0-438 0-11 1-23 5-33 8-24 23-27 40-8 19 20 37 41 54 63 12 14 22 13 35 2 25-22 51-43 77-64 20-16 32-17 53 0 24 19 47 38 70 58 22 19 32 19 53 0 23-20 47-40 71-59 20-16 29-16 49-1 27 22 54 43 80 66 13 12 23 12 34-2 14-17 29-34 43-50 11-14 20-31 42-23 19 8 15 28 15 44 0 291-1 582-2 874z m-149-659c-70 0-140 0-211 0-69 0-139 0-208 0-31 0-43 11-44 36 0 26 14 41 43 41 140 0 280 0 420 0 28 0 42-14 42-39 0-26-12-38-42-38z m42 219c-1-23-13-34-39-35-71 0-142 0-213 0-70 0-141 0-211 0-28 1-41 13-41 37-1 22 9 34 30 37 10 1 19 2 28 2 129 0 257 0 386 0 8 0 16 0 24-1 26-3 37-16 36-40z m-41 148c-53 0-106 0-159 0-87 0-175 0-262 0-28 0-42 13-43 36-1 26 14 40 41 40 71 1 142 1 213 1 69 0 139 0 208 0 27-1 41-12 43-33 3-28-11-43-41-44z" horiz-adv-x="1000" />

<glyph glyph-name="estado-de-cuenta" unicode="&#xe805;" d="M928 792c-4 25-18 40-42 45-12 2-23 3-34 3-235 0-470 0-704 0-13 0-25-1-38-4-21-4-35-20-37-42-1-10-1-21-1-32 0-138 0-276 0-414 0-142 0-283 0-424 0-50 18-68 68-68 240 0 480 0 720 0 49 0 69 20 69 68 1 163 2 326 2 489 0 119-2 239-2 360 0 6 0 13-1 19z m-116-583c1-20-15-39-39-40-46-1-92-1-139 0-24 1-40 19-39 40 0 21 17 36 42 37 1 0 3 0 4 0 22 0 43 0 64 0 22 0 43 0 65 0 24-1 41-16 42-37z m-135 249c-7 6-16 12-27 17-10 6-22 11-35 17-12 6-24 13-35 21-11 8-20 18-27 28-7 12-11 25-11 41 0 13 3 24 7 34 4 10 10 19 17 27 8 8 17 14 27 19 10 5 21 9 32 10v37h39v-37c17-5 32-11 45-20 14-9 24-21 32-37l-49-28c-6 9-13 16-21 22-8 5-18 8-29 8-4 0-9-1-13-2-5-1-9-2-13-5-4-2-7-5-10-9-3-4-4-8-4-13 0-8 4-15 11-21 7-6 16-12 27-17 10-6 22-11 35-17 12-6 24-13 35-21 11-8 20-17 27-28 7-11 11-24 11-40 0-14-2-26-7-37-4-10-10-19-18-27-7-7-16-14-26-19-10-5-21-9-33-12v-37h-39v37c-22 3-41 9-58 21-17 11-31 26-42 46l49 29c7-12 16-22 27-29 11-8 24-11 39-11 5 0 10 0 16 1 6 1 11 3 15 6 5 3 9 6 12 10 3 4 5 10 5 16 0 8-4 15-11 20z m-454 250c46 0 92 1 139 0 33-1 52-27 39-53-8-17-22-23-39-23-24-1-49 0-73 0-22 0-44-1-66 0-27 1-47 17-47 38 1 20 20 37 47 38z m-46-189c1 20 20 37 45 37 23 1 47 0 70 0 23 0 47 1 70 0 26-1 43-16 43-38 0-21-19-39-43-39-47 0-94-1-141 0-25 0-45 19-44 40z m41-116c48 0 97 1 145 0 26 0 42-16 42-39-1-22-16-34-43-35-1 0-2 0-4 0-22 0-44 0-66 0-24 0-48-1-72 0-24 0-42 16-43 36 0 21 17 38 41 38z m361-308c-3-17-18-31-39-31-44-1-88-1-132-1-10 0-19 0-28 0-51 0-102 0-153 0-28 1-46 14-47 36-1 22 15 38 42 41 16 1 32 1 48 1 83 0 165 0 247-1 12 0 23-1 34-4 21-6 30-22 28-41z m-20 80c-11-4-24-6-35-6-97-1-193 0-290 0-3 0-6 0-10 0-27 2-44 17-43 40 0 22 17 37 44 37 52 1 104 0 157 0 50 0 100 1 150 0 11 0 24-4 32-10 23-15 20-49-5-61z m70-37c6 2 13 2 20 3 37 0 75 0 112-1 9 0 18-1 25-4 19-7 29-24 26-41-3-17-18-31-37-31-24-1-48 0-72 0 0 0 0-1 0-1-22 0-44 0-66 1-24 0-40 14-42 34-2 19 11 35 34 40z m142-182c-44-1-89-1-134 0-27 1-43 17-42 39 0 22 17 36 44 37 22 1 44 0 66 0 21 0 43 1 64 0 26-1 43-16 43-38 0-21-15-37-41-38z" horiz-adv-x="1000" />

<glyph glyph-name="contador" unicode="&#xe806;" d="M898 337c-43 38-96 61-155 15-96-75-227-69-325 3-14 10-30 18-47 23-11 4-24 0-39-1 16-21 29-37 41-55 46-76 37-223-82-286-15-8-22-18-20-35 1-15 0-31 0-45 0-30 0-30-28-30-12 0-24 0-39 0 15-30 35-48 61-56 25-8 51-13 77-13 158-1 317-1 475-1 11 0 22 1 34 2 70 5 115 42 129 111 18 87 10 172-18 256-14 41-29 82-64 112z m-314 8c133 0 242 110 242 243 0 134-110 243-244 243-131 0-239-110-239-243 0-135 107-242 241-243z m-375-307c-1 19 5 29 24 35 47 13 81 42 96 89 22 69 0 130-63 166-36 21-75 37-112 56-24 12-34 26-30 44 3 20 20 34 45 35 38 3 75-1 109-20 12-6 18-5 21 9 5 18 10 35 16 52 5 15 1 23-13 27-23 7-46 14-69 19-15 3-20 9-20 23-2 52-3 51-55 50-18 0-27-5-24-25 6-34-6-53-43-67-51-18-77-62-79-116-3-54 23-92 70-117 16-8 32-15 48-22 24-12 48-24 71-37 16-10 27-24 25-44-3-21-17-35-36-39-20-4-41-8-61-5-32 6-64 18-100 29-6-23-14-48-20-74-1-5 6-16 12-19 24-9 48-18 73-23 36-7 37-6 35-42 0-3 0-5 0-8-1-27 0-28 27-28 53 0 54 0 53 52z" horiz-adv-x="1000" />

<glyph glyph-name="saldos" unicode="&#xe807;" d="M549 191c-7-5-15-8-25-10-9-1-17-2-26-2-23 0-44 6-61 18-18 11-32 27-43 47l-79-47c17-31 39-56 66-74 28-18 59-29 94-33v-59h63v59c18 4 36 10 52 19 17 8 31 18 43 31 12 12 21 26 28 43 7 17 11 37 11 58 0 26-6 47-17 65-12 17-26 33-43 45-18 13-37 24-57 34-20 9-39 18-56 27-17 8-32 17-43 27-12 9-17 21-17 34 0 8 2 15 6 21 4 6 9 11 15 14 6 4 13 7 21 9 8 2 15 2 22 2 18 0 33-4 46-13 13-9 24-21 34-35l78 46c-12 25-29 44-51 58-22 15-46 26-72 33v60h-62v-60c-19-2-36-8-53-16-16-8-30-18-42-30-12-13-21-27-28-43-7-17-10-35-10-55 0-26 5-47 17-65 11-18 26-33 43-46 17-13 36-24 56-34 20-9 39-18 56-27 18-8 32-17 44-27 11-9 17-19 17-32 0-10-3-19-8-26-5-6-11-12-19-16z m-55 649c0 0 0 0 0 0-260 13-407-208-407-208l-39 39c-1 1-2 1-2-1v-209l170 77-43 27c122 183 321 171 321 171 244-6 367-224 386-260 2-3 5-4 8-2l94 43c2 2 3 4 3 7-114 324-483 316-491 316z m329-709c-122-182-321-171-321-171-244 7-368 224-387 261-1 2-4 3-7 2l-94-44c-2-1-3-4-3-6 114-324 483-317 491-316 0 0 0 0 0 0 259-14 406 207 406 207l40-39c0-1 2 0 2 1v209l-171-76 44-28z" horiz-adv-x="1000" />

<glyph glyph-name="reportes" unicode="&#xe808;" d="M271 206c145 0 290 0 435 0 10 0 20 0 30 2 20 5 32 22 29 43-2 22-17 34-46 34-77 0-153 0-230 0-73 0-145 0-218 0-43 0-61-12-61-40 1-27 20-39 61-39z m-11-157c75-2 151-1 226-1 0 0 0 0 0 0 79 0 158 0 237 0 27 0 42 16 43 39 0 22-15 38-41 40-6 0-12 0-18 0-146 0-292 0-438 0-9 0-18 0-27-2-28-5-42-37-24-59 9-10 28-17 42-17z m464 393c-90 2-181 1-272 1-66 0-132 0-198 0-26 0-41-12-43-34-3-26 14-43 45-43 77-1 155-1 232-1 77 0 154 0 231 1 13 1 31 8 39 18 7 9 8 29 2 39-6 10-23 19-36 19z m-473 82c65-1 130-1 196 0 26 1 40 16 40 40 0 24-14 38-41 38-32 1-64 0-96 0-32 0-65 1-97 0-26 0-42-15-42-38-1-23 15-39 40-40z m-4-674h513c107 0 194 87 194 194v612c0 106-87 193-194 193h-513c-107 0-194-86-194-193v-612c0-107 87-194 194-194z m-112 806c0 61 50 111 112 111h513c62 0 112-50 112-111v-612c0-62-50-112-112-112h-513c-62 0-112 50-112 112v612z m436-159h193c1 0 2 1 2 2v193c0 1-1 2-2 2h-193c-1 0-2-1-2-2v-193c0-1 1-2 2-2z" horiz-adv-x="1000" />

<glyph glyph-name="compartir" unicode="&#xe809;" d="M581 23c14-114 121-193 234-172 144 27 211 198 124 314-70 93-197 109-288 35-6-4-10-7-17-3-66 28-133 57-199 86-7 3-10 6-9 14 4 21 2 42-2 63-2 7 0 11 6 14 72 38 143 75 214 114 7 3 12 3 19-2 43-30 91-43 143-35 107 16 182 112 170 219-12 111-115 191-224 176-118-16-195-129-167-244 2-9 0-13-8-17-70-37-139-73-208-111-7-3-11-2-17 2-36 30-77 44-123 44-7 0-15 1-22 0-117-14-197-122-174-238 18-90 96-160 197-160 51 0 96 19 134 54 4 5 9 6 15 3 65-28 130-56 195-84 8-3 10-7 8-15-3-19-4-38-1-57z m198 125c56 0 100-45 100-102 0-53-46-99-100-100-55 0-101 46-101 102 0 56 45 100 101 100z m-1 601c56 1 101-45 101-101 0-55-45-100-100-100-57 0-101 44-101 101 0 55 45 100 100 100z m-549-528c-56-1-101 45-101 100 0 56 44 101 100 101 57 0 101-44 101-102 0-51-41-98-100-99z" horiz-adv-x="1000" />

<glyph glyph-name="catalogo" unicode="&#xe80a;" d="M908 764h-813c-26 0-49-9-68-28-19-19-29-42-29-69v-657c0-27 10-50 29-69 19-19 42-28 68-28h813c26 0 49 9 68 28 19 19 28 42 28 69v657c0 27-9 50-28 69-19 19-42 28-68 28z m-605-768c-4-4-9-6-14-6h-194c-5 0-10 2-14 6-3 4-5 8-5 14v116c0 5 2 10 5 14 4 3 9 5 14 5h194c6 0 10-2 14-5 3-4 5-9 5-14v-116h0c0-6-2-11-5-14z m0 232c-4-4-9-5-14-5h-194c-5 0-10 1-14 5-3 4-5 8-5 14v116c0 6 2 10 5 14 4 3 9 5 14 5h194c6 0 10-2 14-5 3-4 5-8 5-14v-116h0c0-6-2-10-5-14z m0 232c-4-4-9-5-14-5h-194c-5 0-10 1-14 5-3 4-5 8-5 14v116c0 6 2 10 5 14 4 4 9 5 14 5h194c6 0 10-1 14-5 3-4 5-8 5-14v-116h0c0-6-2-10-5-14z m314-450c0-6-1-11-5-14-4-4-8-6-14-6h-193c-6 0-11 2-14 6-4 4-6 8-6 14v116c0 5 2 10 6 14 3 3 8 5 14 5h193c6 0 10-2 14-5 3-4 5-9 5-14l0-116 0 0 0 0z m-5 218c-4-4-8-5-14-5h-193c-6 0-11 1-14 5-4 4-6 8-6 14v116c0 6 2 10 6 14 3 3 8 5 14 5h193c6 0 10-2 14-5 3-4 5-8 5-14v-116h0c0-6-1-10-5-14z m0 232c-4-4-8-5-14-5h-193c-6 0-11 1-14 5-4 4-6 8-6 14v116c0 6 2 10 6 14 3 4 8 5 14 5h193c6 0 10-1 14-5 3-4 5-8 5-14v-116h0c0-6-1-10-5-14z m315-450c0-6-2-11-5-14-4-4-9-6-14-6h-194c-5 0-10 2-14 6-3 4-5 8-5 14v116c0 5 2 10 5 14 4 3 9 5 14 5h194c5 0 10-2 14-5 3-4 5-9 5-14v-116z m0 232c0-6-2-11-5-14-4-4-9-5-14-5h-194c-5 0-10 1-14 5-3 4-5 8-5 14v116c0 6 2 10 5 14 4 3 9 5 14 5h194c5 0 10-2 14-5 3-4 5-8 5-14v-116z m0 232c0-6-2-10-5-14-4-4-9-5-14-5h-194c-5 0-10 1-14 5-3 4-5 8-5 14v116c0 6 2 10 5 14 4 4 9 5 14 5h194c5 0 10-1 14-5 3-4 5-8 5-14v-116z" horiz-adv-x="1000" />

<glyph glyph-name="descargar" unicode="&#xe80b;" d="M280 455c-32 32-67 36-92 12-27-25-24-62 9-95 84-85 168-169 252-253 38-37 63-37 101 0 57 55 113 112 170 169 28 28 58 57 86 86 30 32 33 68 8 93-26 24-61 21-93-11-40-39-79-79-119-118-9-8-14-22-32-20 0 15 0 31 0 46 0 120 0 241 0 361 0 28-5 54-28 72-22 16-46 19-72 7-30-15-40-41-40-73 0-120 0-241 0-361 0-18 4-36-7-59-49 50-95 97-143 144z m719-407c0 4 0 8 0 13-3 35-24 54-57 54-33 0-55-16-58-53-5-62-20-75-81-76-202 0-404 0-605 0-62 0-77 13-82 75-2 37-23 54-56 54-34 0-56-18-59-53-1-20 0-39 0-59 0-83 41-123 124-123 125 0 250 0 374 0 113 0 225 3 337-1 126-5 174 35 163 169z" horiz-adv-x="1000" />

<glyph glyph-name="configuracion-1" unicode="&#xe80c;" d="M512 786c-12 1-22-5-30-14-31-29-61-59-92-89-70-67-140-135-209-203-53-51-105-102-158-153-6-5-12-11-17-18-7-11-8-23-2-34 5-12 15-18 27-19 26 0 52 0 78-1 2 0 4 0 7 0 0-3 0-6 0-8 0-102 0-204 0-305 0-5 0-9 0-13 2-19 11-29 30-33 3 0 6-1 10-1 75 0 150 0 226 0 3 0 6 0 8 1 21 1 33 12 34 33 0 4 1 9 1 13 0 72 0 145 0 217 0 3 0 6 0 8 48 0 96 0 144 0 0-2 0-5 0-7 0-74 0-147 0-220 0-6 1-11 2-16 2-15 12-26 27-28 3-1 5-1 8-1 74 0 148 0 222 0 23 0 37 14 38 37 0 3 0 6 0 9 0 102 0 204 0 306 0 3 0 5 0 8 4 0 6 0 8 0 30 0 59 0 89 1 19 0 29 8 36 27 2 5 2 11 0 15-3 8-8 14-13 20-29 30-58 59-88 89-3 3-9 6-15 7-18 2-40-14-44-32-1-8 0-15 6-21 11-10 20-20 31-31 1-1 2-2 4-5-16 0-31 1-45 0-20 0-34-9-37-26-2-5-2-10-2-16 0-103 0-206 0-309 0-3 0-5 0-8-52 0-104 0-156 0 0 5 0 10 0 15 0 48 0 96 0 144 0 25 0 49 0 74 0 25-14 39-39 39-69 0-137 0-205 0-5 0-10 0-15-1-16-4-26-17-26-37 0-76 0-152 0-227 0-3 0-5 0-7-57 0-112 0-168 0 0 3 0 5 0 8 0 102 0 204 0 305 0 5-1 11-1 16-3 16-13 27-30 29-6 1-12 1-18 1-5 0-9 0-14 0-1 1-1 1-1 2 1 1 3 2 5 4 49 47 98 95 147 142 70 68 140 136 209 204 14 14 27 29 40 44 6 6 12 12 16 19 6 8 6 17 1 26-6 11-16 19-29 20z m387-178c10 8 21 16 31 24 4 3 8 7 8 13-1 3-1 6-3 9-13 24-26 47-39 71-5 7-9 8-16 5-8-4-16-7-24-10-10-5-21-7-32-5-18 3-32 18-34 35-1 12-3 24-5 36-1 8-5 12-13 12-27 1-55 1-82 2-8 0-12-4-13-12-2-11-5-22-6-32 0-17-9-26-23-33-12-6-23-7-35-1-11 4-22 9-32 13-3 1-6 2-7 1-6-4-12-8-16-14-12-19-24-39-36-59-6-10-5-15 4-23 9-7 18-14 27-21 10-7 16-17 12-30-1-1-1-3 0-4 4-14-3-23-13-30-10-7-20-14-29-22-8-6-9-11-5-20 13-23 25-46 38-68 5-9 10-11 20-7 9 3 18 7 26 10 25 9 25 9 46-5 1-1 2-1 2-2 8-5 12-12 13-21 2-12 3-24 5-36 1-13 5-16 18-16 24-1 49-1 74-2 13 0 16 3 18 17 1 12 3 24 6 35 6 23 32 37 55 28 10-4 20-9 31-14 11-4 16-3 22 8 13 20 26 41 38 62 8 12 7 17-5 26-10 8-20 16-30 25-5 4-7 9-7 15 1 6 0 13 1 20 0 8 3 15 10 20z m-177-141c-61 2-113 55-111 121 1 60 54 111 116 111 64 0 116-52 115-116 1-66-55-118-120-116z" horiz-adv-x="1000" />

<glyph glyph-name="advertencia" unicode="&#xe80d;" d="M501-150c265-7 497 215 497 494-1 271-223 495-492 495-276 0-498-221-499-496 0-275 229-499 494-493z m-71 818c48 0 95 0 145 0 0-148 0-295 0-443-48 0-96 0-145 0 0 147 0 294 0 443z m72-515c45 0 79-36 79-81 0-45-35-79-79-78-45 0-78 35-78 79 0 45 35 80 78 80z" horiz-adv-x="1000" />

<glyph glyph-name="ordenar" unicode="&#xe80e;" d="M759-121c9-14 29-14 37 0 65 109 127 215 192 325 9 14-2 32-18 32h-82c-12 0-21 9-21 21 0 0 0 0 0 0 0 49 0 98 0 147 0 142 0 284 0 426 0 15-6 20-20 20-42 0-84 0-127 0-3 0-7 0-11-1-11-1-20-10-20-21v-572c0-12-10-21-22-21h-80c-17 0-27-19-19-33 64-109 127-215 191-323z m-718 585h79c12 0 22-10 22-23 0-3 0-6 0-10 0-185 0-370 0-556 0-18 4-26 24-25 40 2 80 1 120 1 34 0 34 0 34 34 0 184 0 367 0 551 0 3 0 5 0 8 0 12 10 22 22 22h78c17 0 28 19 19 34-63 107-125 212-189 320-9 14-30 14-38 0l-190-323c-9-15 1-33 19-33z" horiz-adv-x="1000" />

<glyph glyph-name="rapidas" unicode="&#xe80f;" d="M45 739l-32-36c-16-17-14-43 3-59l301-271c18-16 18-44 0-60l-281-268c-17-16-18-42-2-59l33-34c16-17 42-18 59-2l384 365c18 17 17 45-1 61l-406 365c-17 16-43 15-58-2z m468-694c-17-16-17-42-2-59l33-34c16-17 42-18 59-2l384 365c18 17 17 45-1 61l-406 365c-17 16-43 14-58-3l-32-35c-16-17-14-43 3-59l301-271c18-16 18-44 0-60l-281-268z" horiz-adv-x="1000" />

<glyph glyph-name="pagado-1" unicode="&#xe810;" d="M506 850c-141 1-262-47-361-147-103-102-151-228-146-373 9-262 225-480 499-480 275-1 496 221 500 490 6 283-221 507-492 510z m292-363c-36-36-72-72-109-109-84-84-169-169-253-253-22-22-62-22-84 0-52 52-104 103-155 155-17 17-21 38-14 60 7 23 23 37 46 41 22 5 41-1 56-16 35-35 70-70 105-105 1-2 2-3 3-5 10 10 18 18 27 26 82 83 164 165 247 248 15 15 31 31 46 46 18 17 39 21 62 14 23-7 37-24 41-47 3-22-3-40-18-55z" horiz-adv-x="1000" />

<glyph glyph-name="propiedades" unicode="&#xe811;" d="M857-14c1 97 0 194 1 291 0 5-2 9-6 12-114 94-229 188-342 282-7 6-11 6-18 0-113-94-227-188-342-282-4-4-6-8-6-13 1-49 1-97 1-146 0-46 0-92 0-139 0-31 15-47 47-47 73 0 145 0 218 0 13 0 12-2 12 12 0 72 0 144 0 217 0 4-1 9 6 9 49-1 97-1 146 0 5 0 7-2 7-8-1-12 0-24 0-36 0-62 0-123 0-185 0-5-1-9 6-9 77 0 153 0 229 0 25 0 41 17 41 42z m-817 298c13-16 23-17 39-4 134 112 269 224 403 336 6 6 12 14 19 14 7 1 13-8 19-14 96-80 192-160 289-240 39-33 78-66 117-98 12-10 22-10 31 0 13 15 26 30 38 45 8 10 6 20-3 29-2 2-5 4-8 7-40 33-80 67-120 100-5 4-7 7-7 13 1 80 1 159 1 239 0 18-7 25-26 25-36 0-72 0-107 0-19 0-26-6-26-25 0-27 0-54 0-81 0-11 0-21 0-34-4 3-6 5-8 6-47 39-94 79-141 118-16 14-35 19-57 17-20-1-35-12-50-24-71-60-143-119-215-179s-143-119-214-179c-15-12-16-22-4-36 10-12 20-23 30-35z" horiz-adv-x="1000" />

<glyph glyph-name="reservaciones" unicode="&#xe812;" d="M1000 696c-1 2-2 3-2 5-9 33-36 54-69 54-43 0-86 0-130 0-3 0-7 0-13 0 0 12 0 23 0 34 0 9 0 17-2 26-4 19-18 29-35 35-7 0-13 0-20 0-7-4-15-7-22-12-11-10-16-23-16-38 0-15 0-29 0-45-126 0-252 0-380 0 0 15 0 30 0 45 0 13-3 26-13 35-7 6-17 10-25 15-6 0-13 0-19 0-7-4-15-7-22-12-10-9-16-21-16-35 0-15 0-31 0-48-4 0-8 0-11 0-42 0-84 0-126 0-40 0-64-19-75-57 0 0-1-1-2-2 0-262 0-523 0-785 3-7 5-15 9-21 11-21 30-32 52-38 292 0 584 0 877 0 16 5 32 11 42 25 7 11 12 24 18 36 0 261 0 522 0 783z m-902-37c40 0 78 0 119 0 0-16-1-32 0-47 0-28 22-48 49-47 23 1 43 19 45 41 1 14 0 28 0 42 0 4 0 7 0 11 128 0 253 0 380 0 0-16 0-32 1-48 1-32 31-54 62-44 19 6 32 23 32 43 1 16 0 32 0 49 40 0 79 0 118 0 0-47 0-94 0-141-268 0-536 0-806 0 0 47 0 94 0 141z m806-711c-268 0-537 0-805 0 0 158 0 316 0 474 268 0 536 0 805 0 0-158 0-315 0-474z" horiz-adv-x="1000" />

<glyph glyph-name="imprimir" unicode="&#xe813;" d="M1003 520c-11 41-36 67-78 76-17 3-34 1-51 1-8 0-16 0-24 0-8-1-11 3-11 11 0 68 0 135 1 202 0 18-7 30-23 36-210 0-419 0-629 0-16-6-23-18-22-36 0-67 0-134 0-201 0-12-1-12-13-12-18 0-36 0-54 0-47 0-80-25-94-71-1-2-2-4-2-6 0-126 0-253 0-379 10-41 35-67 77-76 17-3 35 0 52-1 8 0 15 0 23 0 9 1 11-3 11-11 0-57 0-114 0-171 0-17 6-29 22-36 210 0 420 0 629 0 16 7 23 19 23 36-1 56 0 112 0 169 0 13 0 13 12 13 18 0 36 0 54 0 47 1 81 26 95 71 0 2 1 4 2 6 0 126 0 253 0 379z m-773 251c0 11 0 12 13 12 86 0 173 0 260 0 0 0 0 0 0 0 86 0 173 0 259 0 13 0 13-1 13-12 0-54 0-106 0-160 0-14 0-14-15-14-172 0-345 0-517 0-10 0-13 2-13 12 0 54 0 108 0 162z m545-848c0-13 0-14-13-14-172 0-343 0-515 0-2 0-4 1-6 0-9-1-11 3-11 12 0 55 0 110 0 165 0 61 0 122 0 183 0 14 0 14 14 14 86 0 172 0 258 0 86 0 173 0 259 0 14 0 14 0 14-14 0-115 0-231 0-346z m125 205c-16 0-33 1-49 0-10 0-12 3-12 12 1 57 0 113 0 170 0 25-11 37-36 37-200 0-399 0-599 0-27 0-38-11-38-38 0-56 0-112 0-168 0-13-1-13-13-13-17 0-35 0-52 0-22 0-35 13-35 35 0 111 0 223 0 334 0 24 12 36 36 36 134 0 268 0 402 0 0 0 0 0 0 0 132 0 265 0 398 0 25 0 37-12 37-37 0-110 0-220 0-329 0-27-11-39-39-39z m-54 344c-18 0-32-14-32-32 0-19 14-32 33-32 18 0 31 14 31 32 0 19-13 32-32 32z m-529-315c9-1 17-1 25-1 112 0 223 0 334 0 9 0 18 1 25 7 12 8 17 22 13 36-5 14-16 23-32 23-60 0-120 0-179 0-60 0-120 0-180 0-17 0-30-13-32-30-1-16 10-31 26-35z m364-60c-59 0-119 0-178 0 0 0 0 0 0 0-25 0-50 0-75 0-34 0-69 0-104 0-19-1-32-13-33-31-1-17 11-31 29-34 4-1 8-1 11-1 101 0 201 0 301 0 17 0 33 0 50 0 16 1 28 10 32 23 6 22-9 43-33 43z" horiz-adv-x="1000" />

<glyph glyph-name="configuracion" unicode="&#xe814;" d="M34 455c40-13 67-39 74-81 9-59-14-103-70-124-33-12-37-27-23-56 13-26 24-53 34-80 8-24 21-29 44-19 22 10 44 19 70 14 74-14 112-82 82-153-14-33-8-48 26-58 24-7 48-17 70-29 29-16 44-11 56 21 20 53 59 77 108 73 51-4 82-32 98-78 9-25 21-32 46-19 28 14 57 25 87 35 26 9 31 23 19 47-9 16-14 33-13 51-1 26 7 49 23 68 33 41 78 53 132 31 29-12 45-10 54 22 9 27 21 54 33 80 13 26 6 39-21 48-45 16-73 46-74 96-2 54 17 88 67 107 36 14 41 31 25 62-12 23-22 46-30 70-9 29-23 36-53 23-55-25-101-12-135 33-28 36-27 76-8 116 10 23 8 37-19 46-30 10-60 24-90 37-21 10-34 5-41-18-9-25-23-48-46-63-58-38-134-15-161 53-14 35-30 38-60 23-23-11-48-22-73-30-29-10-34-24-21-51 20-42 17-82-13-119-35-41-77-50-134-26-26 12-40 8-49-20-9-28-21-56-34-83-14-26-7-40 20-49z m472 142c128-1 240-116 239-247-1-135-114-242-255-241-129 0-237 111-237 243-1 132 116 245 253 245z" horiz-adv-x="1000" />

<glyph glyph-name="ingreso" unicode="&#xe815;" d="M815 801c-13 13-25 26-38 38-13 13-32 13-45 0-52-53-104-105-156-157-25-25-50-49-75-75-2 2-3 3-4 4-75 76-151 151-226 227-15 14-33 14-48 0-12-12-23-23-35-35-15-16-16-33 0-49 96-96 192-192 288-288 16-16 34-16 50 0 30 30 60 60 90 90 66 66 132 133 199 199 13 14 14 33 0 46z m0-302c-12 13-25 25-37 37-14 14-33 14-47 0-59-60-119-119-179-179-17-17-34-34-51-51-1 0-2 1-2 1-76 76-152 152-228 228-15 15-33 15-49 0-12-12-24-24-35-36-14-13-14-32 0-46 96-97 193-194 290-291 3-2 5-4 7-6 14-8 29-5 40 6 28 29 57 57 85 86 69 68 137 137 206 205 13 14 13 33 0 46z m-36-266c-15 15-33 15-48 1-57-57-113-113-169-170-21-20-41-40-61-61-27 27-54 54-80 80-51 51-101 101-152 152-13 12-32 13-44 1-13-13-27-27-40-40-12-13-12-32 1-45 40-39 79-79 119-118 32-33 65-65 97-97 25-25 50-50 75-76 9-8 19-12 31-9 9 2 14 8 20 13 95 96 191 191 286 287 15 14 14 33 0 47-12 12-24 24-35 35z" horiz-adv-x="1000" />

<glyph glyph-name="egreso" unicode="&#xe816;" d="M186-103c12-12 25-25 37-37 14-13 33-13 46 0 52 52 104 104 156 156 25 25 50 50 75 75 2-1 3-2 4-3 75-76 151-152 226-227 15-15 33-15 48 0 12 12 23 23 34 35 16 15 16 33 1 49-96 96-192 192-288 288-16 16-34 16-50 0-30-30-60-60-90-90-66-66-133-133-199-199-14-14-14-33 0-47z m0 303c12-13 24-25 37-37 14-14 32-14 46 0 60 59 120 119 179 179 17 17 34 34 52 51 1-1 2-1 2-2 76-76 152-151 228-227 15-16 33-16 49 0 11 12 23 24 35 35 14 14 14 33 0 47-97 97-194 194-291 291-2 2-4 4-7 5-13 8-28 6-39-5-29-29-57-57-86-86-68-68-137-137-205-205-13-14-13-33 0-46z m36 265c15-14 33-14 48 0 56 57 113 113 169 170 20 20 41 40 61 61 27-27 54-54 80-80 51-51 101-101 152-152 12-12 32-13 44-1 13 13 27 27 39 40 13 13 13 32 0 45-40 39-79 79-119 118-32 32-65 65-97 97-25 25-50 50-75 75-9 9-19 13-32 10-8-2-13-8-19-13-95-96-191-191-286-287-15-14-14-33 0-47 11-12 23-24 35-36z" horiz-adv-x="1000" />

<glyph glyph-name="recibo" unicode="&#xe817;" d="M873 311c-67 26-95 44-95 76 0 26 19 54 74 54 36 0 63-8 83-16 13-5 28 2 32 15l7 26c4 12-2 24-13 29-19 7-41 13-68 15-12 2-21 12-21 24v26c0 13-11 24-24 24h-17c-13 0-23-11-23-24v-33c0-11-8-21-19-23-68-18-108-67-108-128 0-72 54-109 136-139 58-21 86-43 86-78 0-37-34-61-84-61-36 0-70 9-98 21-13 6-28-1-32-15l-8-27c-3-11 2-23 13-28 24-11 55-19 88-23 12-1 21-12 21-24v-29c0-13 11-23 24-23h17c13 0 23 10 23 23v37c0 11 8 21 19 23 75 19 114 73 114 134 0 70-39 112-127 144z m-277 230h-589c-1 0-2 0-2-1v-83c0-1 1-1 2-1h589c0 0 1 0 1 1v83c0 0-1 1-1 1z m404 211c0 1-1 2-2 2h-991c-1 0-2-1-2-2v-91c0-1 1-2 2-2h992c0 0 1 1 1 2v91z m-995-526c0-1 1-2 2-2h589c0 0 1 1 1 2v82c0 1 0 2-1 2h-589c-1 0-2-1-2-2v-82z m0-222c0-1 1-2 2-2h589c0 0 1 1 1 2v82c0 1 0 2-1 2h-589c-1 0-2-1-2-2v-82z" horiz-adv-x="1000" />

<glyph glyph-name="areas-comunes" unicode="&#xe818;" d="M228 725c-22 1-44 0-65 0-63 0-101-39-101-102 0-223 0-446 0-669 0-62 38-100 100-100 112 0 225 0 338 0 115 0 229-1 343 0 56 0 95 39 95 94 1 33 0 65 0 98 0 193 0 385 0 578 0 62-37 100-99 101-22 0-45 1-67 0-16-1-23 4-22 21 1 23 1 47 0 71 0 27-6 33-33 33-19 0-39 0-59 0-24 0-32-7-32-33 0-25-1-50 0-74 1-14-5-18-18-18-72 0-143 1-215 0-16 0-19 6-19 20 1 25 0 51 0 77 0 19-10 29-30 28-21-1-41 0-61 0-26 0-33-7-34-34-1-23-1-47 0-70 1-17-5-22-21-21z m273-186c107 0 214 0 322 1 18 0 24-5 24-24-1-182-1-364 0-547 0-19-7-25-26-25-214 0-429 0-644 0-18 0-24 8-24 25 1 183 1 366 0 549 0 18 7 22 24 22 108-1 216-1 324-1z m-228-249c25 0 51 0 77 0 15 1 23 9 23 24 0 17 1 34 1 52 0 45-2 47-47 47-5 0-11 0-16 0 0 0 0 0 0 0-11 0-22 0-34 0-16 0-27-8-27-24-1-26-1-51 0-77 1-13 8-21 23-22z m414-1c63 0 63 0 63 62 0 66 1 62-61 62-59-1-64 9-63-64 0-60 0-60 61-60z m-375-186c10 0 19-1 29 0 25 0 32 6 33 30 0 16 0 33 0 50 0 39-4 43-43 43-7 0-14 0-21 0-61 0-61 0-61-60 0-63 0-63 63-63z m377 123c-63 0-63 0-63-62 0-62 0-62 62-62 64 0 62-3 62 63 0 61 7 61-61 61z m-249 89c0-16 7-24 22-25 21 0 42-1 63 0 32 0 36 5 36 37 0 8 0 16 0 23 0 13 0 25 0 38 1 17-8 25-25 25-24 0-48 0-71 0-17 0-26-8-25-26 0-24 0-48 0-72z m95-89c-25 0-49 0-73-1-16 0-23-8-22-23 0-26 0-52 0-77 0-15 8-22 22-22 25 0 51-1 77 0 15 0 23 8 22 24 0 12 0 25 0 37 0 11-1 22 0 33 2 20-7 28-26 29z" horiz-adv-x="1000" />

<glyph glyph-name="queja" unicode="&#xe819;" d="M801 644c0 33-18 53-51 55-8 1-16 1-25 1-152 0-305 0-457 0-44 0-62-19-62-62 0-154 0-308 0-463 0-22 0-22 23-22 91 0 182 0 274 0 94 0 187 0 282 0 13 0 18 3 17 17-1 14 0 28 0 41-1 145 0 289-1 433z m-129-153c-46-45-91-90-137-135-19-20-39-39-59-58-10-12-19-12-30-1-36 38-73 74-110 111-11 11-11 21 0 31 12 12 24 23 36 35 9 9 18 9 27 0 19-21 39-41 60-63 18 17 33 31 47 45 32 31 64 63 95 95 18 17 24 17 41-1 10-10 20-21 30-31 10-9 10-18 0-28z m-609-487c294 0 587 0 881 0 35 0 55 18 56 53 1 48 1 95 0 143 0 29-18 49-46 50-31 2-61 1-91 1-4 0-10-5-10-8-1-29 0-58 0-90 10 0 18 0 26 0 22 0 23-2 23-24 1-25-1-27-23-27-251 0-501 0-752 0-19 0-23 4-24 23 0 25 3 28 29 28 3 0 6 0 10 0 9-1 13 3 13 12 0 25 1 50 0 75-1 4-7 11-11 11-31 0-62 1-93-1-28-2-44-22-44-50 0-47 0-93 0-140 0-37 19-56 56-56z" horiz-adv-x="1000" />

<glyph glyph-name="eliminar" unicode="&#xe81a;" d="M822 576c-213 0-424 0-636 0 1-11 2-20 2-28 20-203 41-407 61-611 5-54 35-86 88-86 111-1 222-1 334 0 52 0 83 32 88 86 15 151 31 302 46 453 6 62 11 123 17 186z m-444-628c-23-1-34 16-37 56-10 153-20 306-30 460-2 30 10 49 31 49 25 0 34-16 36-40 10-155 20-311 31-486 0-21-8-38-31-39z m127 1c-21-2-34 16-34 47 0 78 0 157 0 235 0 0 0 0 0 0 0 77 0 155 0 232 0 35 11 52 34 50 28-2 33-23 33-48-1-157 0-314 0-471 0-24-7-43-33-45z m192 517c-10-156-20-312-30-469-1-7-2-14-3-21-5-20-19-32-37-26-11 4-24 20-26 33-4 22 1 45 2 67 0 0 0 0 0 0 9 140 18 281 27 421 1 24 10 43 36 42 27-2 33-23 31-47z m-543 195c1-26 17-44 45-46 8-1 16-1 24-1 131 0 263 0 395 0 62 0 124 0 186 0 34 1 56 26 50 57-6 28-27 39-53 39-45 0-90 0-138 0 0 16 0 28 0 40 0 12 0 24 0 36-3 40-15 56-52 56-70 2-140 2-210 0-38-1-54-19-56-60-1-23 0-46 0-72-14 0-25 0-35 0-38 0-75 1-112-1-28-1-44-21-44-48z m307 119c36 0 73-2 109 1 27 1 35-9 32-35-1-11 0-22 0-34-66 0-129 0-190 0-2 3-4 4-4 6-6 62-6 62 53 62z" horiz-adv-x="1000" />

<glyph glyph-name="agregar" unicode="&#xe81b;" d="M1000 375c-2 15-4 30-6 45-13 96-52 181-116 254-73 85-165 139-275 163-21 4-43 6-64 9-4 0-8 1-12 2-17 0-34 0-50 0-15-2-30-4-46-6-93-13-176-50-248-111-88-74-144-168-168-281-5-21-6-43-9-64-1-4-1-8-2-11 0-17 0-34 0-51 2-15 3-31 6-46 15-104 59-194 131-270 77-82 172-132 283-150 14-3 28-3 43-5 3 0 6-1 10-2 17 0 34 0 51 0 15 2 30 4 45 6 140 21 252 90 335 205 54 75 84 160 91 253 0 3 1 6 2 9-1 17-1 34-1 51z m-499-449c-233 1-422 190-422 423-1 234 189 424 423 424 233 0 422-189 423-423 1-234-190-424-424-424z m165 462c-38 0-75 0-113 0-4 0-7 0-11 0 0 5 0 9 0 13 0 35 0 70 0 105 0 5-1 10-2 16-3 17-17 30-34 32-18 2-34-7-41-25-2-7-3-15-3-23-1-35-1-70-1-106 0-3 0-7 0-12-5 0-9 0-13 0-36 0-72 0-107 0-6 0-13-1-18-3-19-6-30-24-27-43 2-18 19-33 38-33 36-1 72-1 108-1 6 0 12 0 19 0 0-5 0-8 0-12 0-36 0-71 0-107 0-5 1-10 2-15 3-18 18-31 36-32 16-2 33 9 39 26 2 7 3 14 3 21 0 36 0 73 0 109 0 9 3 11 11 11 38-1 75-1 113-1 18 0 34 11 40 26 11 26-9 54-39 54z" horiz-adv-x="1000" />

<glyph glyph-name="residente-1" unicode="&#xe81c;" d="M950 66c-32 44-73 77-120 105-50 28-103 48-158 61-2 0-3 1-5 1 2 2 3 2 4 3 42 26 75 60 101 102 26 44 41 92 45 143 10 155-96 295-247 327-14 3-29 4-43 7-2 0-3 0-4 0-13 0-26 0-38 0-9-1-17-1-26-3-65-9-123-37-171-82-52-49-84-111-95-182-20-121 37-245 140-311 2-1 4-2 6-4-10-2-19-5-28-7-64-18-124-44-177-84-40-29-74-64-98-107-18-33-29-68-32-105 0-1 0-2-1-3 0-9 0-18 0-27 1-9 2-18 3-26 0-7 1-14 1-21 331 0 662 0 992 0 1 14 2 27 4 41 0 2 0 4 0 6 0 9 0 17 0 26-1 7-1 15-2 22-7 44-25 83-51 118z" horiz-adv-x="1000" />

<glyph glyph-name="mensaje" unicode="&#xe81d;" d="M152 49c54-1 109 0 172 0 0-68 0-126 0-196 25 17 40 25 54 35 70 52 134 126 214 152 81 26 177 8 267 9 85 1 135 46 136 129 2 180 2 361 0 542-1 83-51 130-134 130-239 1-478 1-716 0h0 0c-89 0-137-49-138-138 0-174 0-348 0-522 0-94 49-141 145-141z" horiz-adv-x="1000" />

<glyph glyph-name="salon" unicode="&#xe81e;" d="M256 501c-31-73-62-146-93-219-50-117-100-234-149-352-5-11-9-22-6-35 8-30 37-42 70-28 137 58 274 116 411 174 53 23 107 46 161 69 19 8 30 21 30 47 1 11-6 22-16 32-110 110-219 219-328 328-29 28-65 20-80-16z m-28-364c-1-33-5-65-7-97 0-10-3-15-12-18-22-9-44-19-70-29 31 73 61 142 90 212 4-24 0-46-1-68z m211-7c4 46 7 93 11 143 29-29 56-55 82-82 23-23 23-23-7-35-25-11-50-21-75-32-7-3-12-4-11 6z m-55 199c-4-56-9-112-12-168-2-20-3-39-4-59 0-9-4-14-12-18-18-7-36-15-54-23-9-4-11 0-10 8 6 76 12 152 18 229 2 31 4 62 6 93 0 3-1 8 3 10 4 2 6-3 8-5 17-17 33-34 50-50 5-5 8-10 7-17z m160 62c15-15 35-15 50 1 88 89 175 179 263 268 6 6 10 13 10 22 0 16-10 29-24 36-16 6-28 1-39-10-48-50-97-99-145-148-38-40-77-79-116-119-15-16-14-35 1-50z m324-38c28-4 55-12 81-22 22-8 41 0 49 19 7 19-2 38-25 46-6 3-13 5-20 8-46 16-94 24-143 19-69-8-127-41-183-80-9-7-14-16-13-33 0-7 5-18 16-24 13-8 26-7 38 1 20 14 40 27 61 38 44 23 89 35 139 28z m-422 166c-15-23-14-43 4-55 18-13 38-7 53 15 6 10 13 19 19 28 33 55 58 112 56 177 1 49-11 94-29 137-8 19-26 27-44 21-18-7-26-25-20-45 2-7 5-14 7-20 26-70 24-139-13-205-10-18-21-36-33-53z" horiz-adv-x="1000" />

<glyph glyph-name="aforo" unicode="&#xe81f;" d="M911 80c29 0 58 0 87 0 0 63 0 125 0 187-4 11-7 22-13 32-19 32-61 50-96 42-5-1-11-2-7-10 17-30 20-62 20-96-1-47 0-95 0-142 0-7-1-13 9-13z m-459 389c-81-22-141-98-142-181-1-113 0-225 0-338 0-9 2-12 11-12 61 1 121 0 182 0 61 0 122 1 183 0 9 0 12 3 12 12-1 113-1 225-1 338 0 10-1 21-3 31-22 111-134 180-242 150z m259-83c-9-2-10-5-6-12 14-31 21-63 21-97-1-38 0-75 0-113 0-46 0-91-1-137 0-9 3-12 13-12 41 0 83 0 124 0 9 0 11 2 11 11 0 78 1 157 0 235 0 82-82 145-162 125z m-415 0c-77 20-161-43-162-123 0-39 0-77 0-116 0 0 0 0 0 0 0-40 0-80 0-120 0-10 3-13 13-12 39 0 79 0 118 0 16 0 16 0 16 16 0 81 1 162 0 243 0 35 6 68 21 100 4 7 3 10-6 12z m208 369c-69 0-124-55-124-123-1-69 55-125 123-125 68-1 125 56 125 124 0 68-55 124-124 124z m-387-414c-53 11-107-31-108-85-1-27 0-55 0-82 0 0 0 0-1 0 0-27 1-56 0-84 0-8 3-10 11-10 23 0 47 0 70 0 17 0 17 0 17 16 0 51 0 103-1 154 0 28 6 55 18 79 5 9 5 10-6 12z m235 163c0 47-38 85-84 85-46 0-85-39-85-85 0-46 38-84 85-84 49 1 84 40 84 84z m387 85c-46 0-83-38-83-85 0-46 37-84 83-84 50 1 85 39 85 85-1 47-38 84-85 84z m-581-159c1 30-25 56-56 57-32 0-58-26-58-57 0-31 26-57 57-57 31 0 57 25 57 57z m748 56c-31 0-57-25-57-55 0-32 26-58 58-58 31 0 56 26 56 57 1 31-25 57-57 56z" horiz-adv-x="1000" />

<glyph glyph-name="pdf" unicode="&#xe820;" d="M143 351c-4 0-8 0-12-1-16-3-28-13-33-29-1-2-1-3-1-5 0-92 0-185 0-277 3-14 11-25 25-32 7-3 14-3 22-3 5 0 5 0 5-6 0-13 0-26 0-39 0-55 36-98 89-108 2 0 3-1 4-1 193 0 385 0 577 0 12 2 23 5 34 11 38 20 59 52 59 95 0 213 0 425 0 637 0 5-1 8-4 11-82 81-164 163-245 244-3 2-6 4-9 4-133 0-267 0-400 0-50 0-96-39-103-89-2-7-2-15-2-22 0-126 0-252 0-379 0-1 0-3 0-4 0-6 0-6-6-7z m93 429c7 4 14 5 22 5 59 0 119 0 178 0 64 1 128 1 191 1 6 0 6 0 6-6 0-44 0-88 0-132 0-43 33-76 76-76 43 0 86 1 128 1 7 0 7 0 7-7 0-102 0-204 0-306 0 0 0 0 1 0 0-27 0-55 0-82 1-74 0-148 0-221 0-20-13-37-32-40-3-1-7-1-10-1-182 0-363 0-545 0-24 0-43 18-43 42 1 13 0 27 0 40 0 6 0 6 6 6 32 0 65 0 97 0 136 0 272 0 408 0 22 0 40 15 43 37 1 3 1 5 1 8 0 86 0 171 0 257 0 26-18 44-44 45-2 0-4 0-7 0-165 0-330 0-495 0-9 0-9 0-9 9 0 128 0 255 0 382 0 17 7 29 21 38z m131-606c0 29 0 58 0 87 0 6 0 6 6 6 22 0 45 0 67 0 38 0 82-32 88-82 6-48-27-93-75-102-5-1-9-1-13-1-23 0-45 0-68 0-5 0-5 0-5 5 0 29 0 58 0 87z m300 58c0-4-2-5-5-5-16 0-32 0-48 0-5 0-6 0-6-5 0-7 0-15 0-22 0-5 1-5 6-5 14 0 27 0 41 0 6 0 6 0 6-6 0-9 0-19 0-28 0-6 0-6-6-6-14 0-27 0-41 0-6 0-6 0-6-6 0-20 0-41 0-61 0-6 0-6-6-6-12 0-24 0-36 0-4 0-5 1-5 5 0 58 0 117 0 175 0 4 1 5 5 5 16 0 32 0 48 0 15 0 31 0 47 0 5 0 5 0 5-5 1-10 1-20 1-30z m-468 29c0 6 1 6 6 6 25 0 50 0 75 0 8-1 15-2 22-4 19-6 31-18 36-37 3-13 3-27 0-41-6-23-23-37-48-41-12-1-25 0-37-1-6 0-7 0-7-6 0-17 0-33 0-50 0-5 0-6-6-6-11 0-23 0-35 0-6 0-6 1-6 6 0 29 0 58 0 87 0 30 0 58 0 87z m228-139c30 0 49 18 52 46 4 28-13 52-39 58-7 1-14 1-20 1-6 0-6 0-6-6 0-15 0-31 0-47 0-13 0-26 0-40 0-14-2-13 13-12z m-180 84c0 0 0 0 0 0 0-7 0-13 0-20 0-2 0-5 3-4 6 0 13-1 20 0 13 1 21 10 21 23 0 14-7 22-21 24-6 1-13 0-19 1-3 0-4-2-4-5 0-7 0-13 0-19z" horiz-adv-x="1000" />

<glyph glyph-name="imagen" unicode="&#xe821;" d="M890 47c-7-1-14-1-21-1-249 0-498 0-748 0-3 0-7 0-11 0-6 0-9-3-8-9 5-35 32-58 67-58 254 0 509 0 764 0 40 0 56 16 63 45 0 185 0 370 0 555-9 26-27 42-54 48-12 2-14 1-14-12 0-37 1-73 1-110 0-121 0-241 0-362 0-15 3-31 1-46-3-27-17-46-40-50z m-887 88c2-29 20-50 48-55 7-2 15-2 22-2 174 0 348 1 522-1 77-1 154 0 231 0 8 0 17 0 25 2 26 4 40 18 45 44 2 8 2 16 2 24 0 110 0 220 0 331 0 61 0 123 0 184 0 35-19 57-52 62-7 1-13 1-20 1-125 0-250 0-375 0-86 0-173 0-260 0-42 0-85 0-127 0-29-1-52-18-59-44-2-7-2-15-2-22 0-172 0-343 0-515 0-3 0-6 0-9z m69 509c0 14 0 14 14 14 244 0 488 0 732 0 13 0 13 0 13-13 0-164 0-327 0-490 0-13 0-13-14-13-122 0-244 0-366 0-121 0-243 0-364 0-15 0-15 0-15 14 0 163 0 325 0 488z m40-469c3 0 5 0 8 0 110 0 220 0 329 0 111 0 222 0 333 0 15 0 15 0 15 16 0 32 0 65 0 97 1 9-2 16-7 23-50 70-100 141-150 212-7 8-7 8-14 0-38-49-77-98-115-147-9-11-9-11-20 0-15 16-31 32-46 48-5 6-9 7-15 0-50-59-102-117-152-176-6-6-10-6-16 0-17 16-35 31-52 47-6 6-10 5-14-1-11-14-23-28-34-42-18-22-36-45-54-68-2-2-4-4-3-7 1-3 4-2 7-2z m137 291c48 0 85 36 85 82 0 45-37 83-83 83-46 0-85-36-85-81 0-48 36-84 83-84z" horiz-adv-x="1000" />

<glyph glyph-name="agregar-proveedores" unicode="&#xe822;" d="M156 653c11 0 12-1 16-11 10-33 21-65 32-97 35-106 70-213 106-319 5-12 3-20-7-29-42-40-54-89-43-144 16-73 90-133 180-116 66 13 117 69 123 136 1 10 5 14 14 17 26 8 52 17 77 26 59 19 118 39 176 58 25 8 50 16 74 25 17 6 23 17 18 35-5 16-11 32-17 48-3 9-10 16-21 16-6 0-12-2-18-4-63-21-125-42-187-63-46-15-91-30-137-45-7-3-13-2-18 4 0 1-1 2-2 3-26 28-58 45-96 48-9 0-14 5-17 14-36 106-71 213-107 319-16 49-32 99-49 148-6 18-19 29-38 32-8 2-15 2-22 2-26 0-52 0-78 0 0 0 0-1 0-1-30 0-61 0-92 0-14-1-23-11-23-25 0-17 0-34 0-51 0-14 8-23 22-25 5-1 10-1 15-1 40 0 80 0 119 0z m255-488c42-1 77-34 76-79 0-39-37-75-77-75-40 1-78 34-76 78-3 39 35 77 77 76z m343 395c5 1 9 1 14 2 0 3-1 5-2 7-6 20-12 39-19 58-6 18-12 37-19 55-5 12-17 18-30 15-31-10-62-21-93-32-4-1-6-3-4-8 2-6 4-13 6-19 14-42 28-84 41-125 2-6 2-9-4-11-27-9-54-18-82-27-5-2-8 0-10 5-1 2-2 4-3 7-14 42-28 84-42 126-5 17-3 20-24 13-26-10-52-18-77-27-16-5-22-15-20-30 1-4 2-7 3-11 26-79 52-159 79-238 2-6 6-11 13-13 22-6 42-17 60-30 7-4 13-5 21-3 62 21 123 41 185 62 16 5 33 11 49 16 0 18 0 34 0 50 0 5-2 7-7 7-10 0-19 0-29 0-31 1-58 21-63 52-3 13-2 28-1 42 2 31 27 55 58 57z m227-53c-24 0-48 0-71 0-7 0-12 2-14 8-1 3-1 7-1 10-1 25 0 50-1 74 0 9-3 12-12 13-5 0-11 0-17 0-11 0-15-4-15-16 0-24 0-49 0-74 0-12-4-16-15-16-24 0-48 0-71 0-10 0-14-4-15-14 0-5 0-9 0-14 0-11 4-14 15-14 23 0 46 0 69 0 13 0 17-4 17-17 0-12 0-24 0-36 0-13 0-26 0-40 0-9 4-14 14-14 6 0 11 0 17 0 11 0 14 3 14 14 0 25 0 50 0 74 0 14 4 19 18 19 23 0 47 0 70 0 9 0 13 4 13 13 1 5 0 9 0 14 0 12-4 16-15 16z" horiz-adv-x="1000" />

<glyph glyph-name="agregar_evento" unicode="&#xe823;" d="M102-129c227 0 454 0 680 0 7 0 15 1 21 2 47 7 78 43 78 91 0 84 0 168 0 252 0 2 0 5 0 8-31-9-61-7-91-3 0-3 0-6 0-8 0-77 0-154 0-230 0-15-5-25-25-25-201 0-401 0-602 0-16 0-32-1-48-1-18 0-24 6-24 25 0 176 0 352 0 529 0 14 5 20 19 20 4 0 7 0 10 0 158 0 316 0 473 0 6 0 10 1 13 6 18 22 41 34 69 34 15 0 30 0 45 0 4 0 6 1 6 6 0 9 0 17 0 26 0 12-1 25 1 37 5 32 23 54 50 67-21 0-43 0-64 1-14 0-22 2-22 21 0 25 0 49 0 74 0 16-5 23-20 24-29 1-57 0-86-1-9 0-14-6-16-16-1-5-2-11-2-17 0-23 0-46 0-70 0-9-2-13-12-14-7-1-13 0-20 0-58 0-117 0-175 0-10 0-19-1-29-1-13 0-19 6-19 19 0 9 2 18 2 27-1 17-1 34-2 52 0 12-9 22-23 22-25 0-50 0-75 0-16-1-23-6-24-22-2-17-2-34-3-51 0-11 1-22 1-33 0-7-3-12-10-13-5-1-9-1-13-1-30 2-59 2-89-2-26-5-48-18-62-41-10-17-14-35-14-54 0-215 0-429 0-643 0-8 1-15 2-22 4-23 15-43 35-57 19-13 42-17 65-18z m761 551c0 9 6 14 15 15 6 1 12 1 18 1 29 0 58 0 87 0 12 0 17 5 17 17 0 8 0 16 0 24 0 14-4 18-19 18-33 0-66 0-100 0-11 0-17 6-19 18 0 3 0 6 0 9 0 34 0 68 0 101 0 12-6 17-17 17-8 0-16 0-24 0-16 0-21-5-21-21 0-34 0-68 0-102 0-15-6-22-21-22-34 0-67 0-100 0-12 0-17-5-17-16 0-9 0-18 0-27 0-10 5-15 16-15 9-1 17 0 26-1 26 0 53 0 79 0 11-1 16-7 16-18 1-19 0-37 0-56 0 0 1 0 1 0 0-18 0-36 0-54 0-12 5-17 17-17 9 0 17 0 26 0 14 0 18 4 18 19 0 18 0 36 0 53 1 19 1 38 2 57z m-657-129c15-1 30 0 45 0 0-1 0-1 0-2 12 0 25 0 37 0 16 1 24 9 24 25 0 21 0 43 0 65 0 19-6 26-25 26-25 1-50 1-75 0-13 0-21-7-22-18-1-9-1-19-1-29 0-16 1-33 1-49 0-10 6-18 16-18z m3-180c27-1 53-2 80-2 15 1 23 8 23 23 1 24 1 47 0 71 0 13-6 20-19 21-13 2-26 1-40 1 0 0 0 0 0 1-11 0-23 0-34-1-18-1-29-3-29-24-1-24 0-49 0-73 1-10 10-17 19-17z m482 93c0 13-5 19-18 20-11 1-23 2-35 1-16 0-33 0-49-1-11-1-16-6-19-17-1-4-2-9-2-13 0-22 0-44 1-65 1-13 8-18 20-18 27-1 53-2 80-2 15 1 22 9 22 24 0 12 0 23 0 35 0 12 0 24 0 36z m-288 85c25 0 49 0 74 0 17 0 24 7 24 24 0 24 0 47 0 70 0 15-8 23-23 23-13 0-25 0-37 0-13 0-25 0-38 0-15 0-23-8-23-23 0-24 0-47 0-70 0-16 8-24 23-24z m76-64c-26 1-52 1-78 0-14 0-21-7-21-21 0-25 0-49 0-73 0-15 7-22 22-22 13 0 26 0 38 0 13 0 25 0 37 0 18 0 24 6 24 24 0 22-1 44 0 66 1 16-6 26-22 26z m212 111c0 5 0 10 0 16 0 10 0 10-10 10-33 0-59 12-78 39-2 2-4 4-5 4-15 1-26-2-29-17 0-5-2-10-1-15 0-20 0-40 1-60 1-16 8-23 24-24 24-1 48 0 72 0 16 1 23 7 25 22 1 8 1 17 1 25 0 0 0 0 0 0z" horiz-adv-x="1000" />

<glyph glyph-name="agregar-vehiculo" unicode="&#xe824;" d="M26 351c10 1 21 0 32 0 0-4 0-5 0-6 0-2-1-4-1-5-7-27-11-55-10-83 1-11 1-23 1-35 0-62 0-125 0-188 0-8 1-16 3-24 5-16 16-24 32-24 39 0 78 1 116 0 9 0 16 4 20 10 4 5 8 11 8 17 2 12 2 24 1 35-2 16 3 27 16 30 3 1 6 1 10 1 62-1 125-1 187-2 17 0 33 1 49 1 57 1 113 1 170 1 2 0 5 0 8-1 11-1 17-6 18-17 1-7 0-13 0-20-1-12-1-23 3-34 5-14 14-21 29-21 38 0 77 0 115 0 16 0 30 12 32 28 1 7 0 13 0 19 1 27 1 55 1 82 0 61 2 122-2 183 0 6-1 11-2 16 0 4-2 7-7 7-9-1-19-1-28 0-25 1-46 10-63 30-12 15-18 33-18 52 0 8 0 15 0 22-5-1-8-2-12-3-25-5-50-11-75-14-26-4-53-6-79-8-15-2-31-2-46-3-30-1-60-2-90-3-27 0-53 2-80 3-18 1-37 2-55 4-20 2-40 5-60 8-24 4-48 8-72 13-13 3-17 11-13 23 15 48 30 95 46 142 6 20 20 34 40 41 33 12 68 15 103 17 24 1 48 2 72 2 46 1 93 2 139-3 27-4 54-8 81-12 2-1 6 0 8 1 15 10 32 15 51 15 12-1 23 0 37 0-6 5-10 10-14 14-19 16-41 25-64 32-30 8-60 13-91 14-30 2-60 5-90 5-56 2-112 1-168-7-29-5-58-9-86-20-34-13-60-34-72-69-16-42-31-84-46-126-5-13-9-27-16-39-6-12-19-17-32-14-13 3-22-1-31-9-15-14-25-31-28-52-2-15 7-28 23-26z m612-109c0 7 2 12 8 16 42 23 84 46 133 53 7 1 15 1 23 0 10-2 16-10 18-19 4-16 6-32 3-48-3-13-11-22-24-25-15-4-31-7-46-8-14-2-28-2-47-3-12 1-28 1-45 4-18 3-24 12-23 30z m-543 53c6 15 20 22 36 19 30-6 59-17 87-30 14-6 28-13 42-20 13-8 19-19 16-34-2-9-12-17-23-18-12-1-24-2-37-2 0 0 0-1 0-1-14 0-29 0-44 0-19 0-38 3-57 9-12 3-21 10-22 24-2 18-6 35 2 53z m905 269c0 11-5 16-17 16-30 0-60 0-91 0-14 0-20 6-20 20 0 32 0 65 0 97 0 11-5 17-17 17-7 0-14 0-21 0-15 0-19-4-19-19 0-31 0-63 0-94 0-16-6-21-22-21-30 0-60 0-90 0-11 0-16-5-16-16 0-7 0-15 0-22 0-12 4-17 17-17 31 0 61 0 93 0 11 0 17-5 18-17 0-3 0-6 0-9 0-31 0-62 0-93 0-11 5-16 16-16 9 0 17 0 25 0 12 0 16 5 16 16 0 17 0 34 0 50 0 17 0 33 0 49 0 14 6 20 21 20 30 0 61 0 91 0 11 0 16 5 16 15 0 8 0 16 0 24z" horiz-adv-x="1000" />

<glyph glyph-name="agregar-estacionamiento" unicode="&#xe825;" d="M6 349c1-30 10-56 25-81 46-80 92-160 139-240 18-32 43-54 76-68 21-8 42-11 63-11 84 0 167 0 251 0 13 0 27 0 41 1 47 3 86 23 113 62 18 25 32 53 48 80 31 55 63 109 94 163 6 11 12 21 18 33-25-4-48-5-71-1-37 5-67 41-67 79 0 16 0 33 0 49 0 6-2 8-8 8-14 0-29 0-44 0-35 2-59 20-73 52-11 25-10 52-5 78 8 40 42 66 83 66 13 0 26 1 40 0 5 0 7 2 7 7-1 9 0 17-1 26 0 3 0 6-2 9-5 9-10 19-17 28-30 42-70 65-122 65-98 1-196 0-294 0-6 0-12 0-18-1-46-6-83-29-108-68-20-32-38-65-57-98-29-50-58-101-87-151-15-28-24-56-24-87z m252-250c0 2 0 3 0 4 0 161 0 323 0 484 0 10 0 10 9 10 101 0 202 0 304 0 3 0 5 0 9 0 0-6 0-10 0-15 0-19 0-37 0-56 1-7-2-8-8-8-70 0-140 0-209 0-10 0-10 0-10-10 0-35 0-71 0-107 0-7 2-9 8-9 59 1 118 1 177 1 3 0 6 0 9 0 0-27 0-52 0-78-3 0-6 0-9 0-59 0-118 0-177 0-6 0-8-2-8-9 0-42 0-84 0-126 0-7 2-8 8-8 70 0 141 0 211 0 9 0 9 0 9-9 0-20 0-40 0-60 0-10 0-10-10-10-97 0-194 0-290 0-6 0-12 0-17 0-5 0-7 2-6 6z m548 271c0-9 5-15 15-15 8 0 16 0 24 0 15 0 19 4 19 18 0 33 0 65 0 97 0 18 6 23 23 23 31 0 62 0 93 0 10 0 15 5 15 15 0 8 0 16 0 23 0 13-4 18-17 18-30 0-61 0-91 0-5 0-9 0-13 2-9 3-10 11-10 20 0 32 0 64 0 97 0 14-4 18-18 18-8 0-16 0-24 0-12 0-16-5-16-17 0-33 0-66 0-100 0-2 0-5-1-8-3-8-9-12-20-12-32 0-63 0-95 0-10 0-15-4-16-14 0-9 0-19 0-28 1-10 6-14 16-14 32 0 63 0 94 0 15 0 21-6 21-20 0-17 0-34 0-50 1-18 1-35 1-53z" horiz-adv-x="1000" />

<glyph glyph-name="mantenimiento" unicode="&#xe826;" d="M987 716c-4-2-6-2-7-3-25-25-49-50-75-74-8-7-21-11-31-9-73 13-72 14-91 84-4 17-2 28 11 40 27 25 54 52 80 77-3 4-4 6-5 6-72 23-138 12-196-36-58-49-78-114-67-188 2-15 1-25-9-36-108-107-215-215-324-321-7-7-22-11-32-10-107 19-207-45-232-151-8-38-7-76 10-118 29 29 55 56 82 82 6 6 18 11 25 10 74-12 80-19 97-91 3-13 1-23-10-33-26-25-52-51-82-80 40-17 77-18 113-10 109 23 172 121 155 232-2 11 3 27 11 35 106 107 212 213 318 320 12 11 23 15 38 11 106-22 212 51 231 159 6 35 7 71-10 104z" horiz-adv-x="1000" />

<glyph glyph-name="vecinos" unicode="&#xe827;" d="M239-4c176 0 352 0 529 0 0 38 2 75 0 112-4 72-62 136-138 156-6 2-14 1-20-2-72-34-143-34-215 1-5 2-12 3-17 2-77-20-135-85-139-158-3-35-1-70-2-105 0-2 1-4 2-6z m267 602c-93 1-169-66-171-151-1-85 73-154 167-155 91-1 167 66 169 150 2 85-72 155-165 156z m-95 35c-46 64-137 87-213 54-75-33-112-113-87-184 29-82 117-113 170-106-19 107 26 185 130 236z m486-118c18 76-30 155-110 180-86 27-167-17-192-61 100-44 152-140 128-237 77-8 155 45 174 118z m102-305c-5 75-60 139-137 160-6 2-14 2-18 0-42-21-86-30-134-26-3 1-9 0-10-2-10-11-18-23-27-35 45-18 81-46 109-83 28-37 42-78 45-123 58 0 114 0 172 0 0 37 2 73 0 109z m-992-108c58 0 114 0 172 0 8 96 60 164 155 205-8 10-16 19-23 29-4 7-9 9-18 8-46-4-89 5-130 26-4 2-10 2-15 1-70-16-132-79-139-145-4-38-2-77-3-115 0-3 1-6 1-9z" horiz-adv-x="1000" />

<glyph glyph-name="cerrar" unicode="&#xe828;" d="M636 363l299 424h-246l-99-163c-26-45-52-91-77-139h-6c-26 45-51 88-80 135l-107 167h-251l299-433-310-449h249l103 176c29 49 55 92 80 143h4c26-49 52-96 81-143l110-176h255l-304 458z" horiz-adv-x="1000" />

<glyph glyph-name="jardineria" unicode="&#xe829;" d="M954 591c-30 47-69 84-118 110-57 30-119 41-183 33-34-4-66-13-97-28-38-19-71-45-99-78-30-36-52-75-62-120-6-23-7-46-10-70-2-16-2-32-3-49 156 0 310 0 466 0 0 14 0 27-1 40-1 11-4 22-14 30-10 8-22 9-34 9-107 0-214 0-321 0-4 0-7 1-10 1 10 74 80 178 208 188 86 7 190-39 232-152 33-87 3-192-60-242 0 30 0 59 0 87-156 0-310 0-465 0 0-24 0-47 0-70 0-10-4-13-13-10-9 4-19 7-27 13-28 20-57 40-84 63-36 31-71 65-106 98-8 8-15 19-22 29-8 13-7 19 3 31 5 7 7 19-2 26-4 2-6 6-9 9-9 8-16 8-24 0-31-32-63-63-94-95-2-2-4-7-4-11-2-12 9-16 16-23 5-6 13-7 20-1 14 12 28 9 40-1 16-13 32-27 46-43 30-33 61-66 88-101 47-61 93-123 138-186 17-24 33-50 36-80 3-19 17-32 36-32 130 0 260 0 390 0 4 0 8 1 12 2 19 7 25 23 25 41 0 48 0 96 0 144 0 7 2 10 8 13 15 10 30 20 43 32 33 30 58 65 76 106 23 49 29 101 25 154-5 48-21 92-46 133z" horiz-adv-x="1000" />

<glyph glyph-name="albanil" unicode="&#xe82a;" d="M359 112c57-2 110 20 159 65-22 22-42 42-62 62-25 25-51 49-74 76-34 40-25 101 20 142 43 41 104 43 141 7 40-40 80-80 120-120 3-4 7-7 10-11 94 100 75 256-36 299-159 63-318 123-478 184-34 13-72 2-102-27-30-30-41-69-28-102 61-160 121-320 184-478 25-63 76-94 146-97z m590-199c31 39 32 86 2 117-32 33-64 64-96 96 0 0 0 0 0 0-32 32-64 63-95 96-10 9-16 9-26-1-34-35-69-70-103-104-13-13-13-14-1-27 62-62 125-125 187-187 7-6 14-12 23-16 36-18 84-7 109 26z m-245 322c-1 3-2 4-3 5-59 59-117 119-178 177-25 25-62 21-88-7-23-25-23-61 1-85 56-56 112-112 169-168 3-4 7-7 10-10 31 30 59 59 89 88z" horiz-adv-x="1000" />

<glyph glyph-name="intendencia" unicode="&#xe82b;" d="M975 767c32 33 28 62-12 83-7 0-15 0-22 0-11-7-21-16-30-25-94-94-188-187-281-282-16-16-31-32-56-22-5 1-12-1-18-2-38-6-67-28-95-54-6-5-9-10-20-3-49 31-92 28-139-6-85-63-169-125-253-188-60-44-65-101-12-153 72-74 146-146 219-220 19-20 40-37 67-45 10 0 21 0 31 0 22 8 43 18 58 38 68 90 136 179 203 270 28 39 30 82 5 123-11 17-7 23 5 35 35 34 56 75 47 125-3 15 0 24 11 35 98 96 195 194 292 291z m-510-667c-39-50-77-101-115-152-9-12-14-12-24-2-30 30-30 30 0 60 7 8 15 16 22 25 9 14 8 29 0 44-8 14-21 20-39 20-16 1-26-11-38-22-11-11-23-30-35-31-14 0-25 21-37 32-34 34-67 68-101 100-10 10-12 16 1 25 52 38 103 75 153 114 11 7 16 8 26-2 61-62 123-124 185-186 9-9 10-14 2-25z m85 129c-1-21-12-31-22-42-4-4-7 2-10 5-58 58-116 116-174 173-6 7-7 10 1 16 20 15 32 28 60-1 43-46 88-89 132-133 6-7 14-12 13-18z m39 185c-7-21-21-36-37-49-6-5-9-1-13 2-30 24-30 29 1 52 10 8 21 14 34 16 12-2 18-9 15-21z" horiz-adv-x="1000" />

<glyph glyph-name="recoleccion" unicode="&#xe82c;" d="M593-66c4 0 8 0 12 0 71 0 143 0 215 0 26 0 51 3 74 12 61 23 98 66 104 132 5 41-8 79-29 115-22 39-45 78-67 117-1 3-3 5-5 8-7-29-20-53-46-68-25-14-52-14-80-6 2-5 4-8 5-11 23-39 46-77 67-117 16-30 12-33-20-35-26-2-51-1-77-1-51 0-101 0-154 0 0 13 0 25 0 37-1 35-25 50-55 33-67-38-133-76-199-115-29-17-29-46 0-63 66-39 133-78 200-116 29-16 53-1 54 32 0 12 0 24 0 36 0 3 1 6 1 10z m-19 544c-17-16-16-35 1-51 2-2 6-4 9-6 66-39 132-77 199-115 29-16 53-2 54 32 0 2 0 3 0 5 0 74 0 147 0 221 0 39-24 52-58 34-8-5-15-9-23-14-2-1-5-2-8-3-3 4-5 7-7 10-30 53-59 106-90 157-12 20-26 40-43 56-39 38-87 54-141 42-45-11-79-38-103-75-26-41-49-83-75-127 31 6 58 4 82-14 23-18 34-43 38-73 24 41 47 81 70 120 4 8 10 14 15 21 4 5 9 5 12 0 6-7 12-14 17-22 31-54 62-108 93-162 1-3 2-5 4-8-11-7-22-12-32-18-5-4-10-7-14-10z m-437-539c48-7 98-4 146-5 1 0 1 1 1 1-42 51-38 99 10 146-37 0-73-1-108 0-8 0-15 0-23 1-15 3-17 6-12 21 2 6 5 11 8 17 33 58 67 117 101 175 1 3 3 5 4 7 12-6 23-13 35-18 26-11 47 2 49 30 0 4 0 8 0 12 0 35 0 69 0 103 0 41 0 81-1 121 0 31-24 44-51 31-3-1-5-2-7-4-64-36-128-73-191-110-5-3-10-6-14-10-16-15-16-34 0-49 5-4 10-7 15-10 12-7 24-14 37-21-16-28-31-55-47-82-23-41-47-81-68-122-21-41-27-85-13-130 22-61 67-96 129-104z" horiz-adv-x="1000" />

<glyph glyph-name="pintura" unicode="&#xe82d;" d="M944 558c-17 17-32 18-52 5-30-20-60-41-89-61-3-2-6-4-9-5 21 34 43 67 65 99 13 19 11 35-5 51-34 34-68 68-102 102-15 16-28 17-47 8-4-1-7-3-13-5 2 6 4 9 5 13 9 20 7 32-9 48-8 9-16 17-24 25-21 20-38 20-58 0-85-85-170-170-255-255-3-2-5-5-6-6 127-127 253-253 380-380 1 2 3 5 6 8 83 83 167 167 250 250 8 8 13 17 19 25 0 5 0 10 0 15-6 9-12 17-19 25-12 13-25 25-37 38z m-671-336c-74-50-149-98-222-150-69-48-67-150 2-198 17-11 36-17 55-21 10 0 19 0 29 0 1 0 2 1 3 1 35 5 63 23 83 52 49 73 97 146 146 219 4 7 9 14 16 19 27 25 64 23 92-4 23-23 45-46 68-68 17-18 36-17 53-1 14 14 28 28 42 42 11 11 22 22 32 31-127 128-253 254-380 380-23-24-47-48-71-72-20-19-20-37 0-56 22-22 44-44 66-66 18-19 26-40 19-67-4-18-17-31-33-41z m-150-293c-25 0-47 22-46 48 0 26 21 47 47 47 26 0 48-22 48-48-1-26-23-48-49-47z" horiz-adv-x="1000" />

<glyph glyph-name="electrico" unicode="&#xe82e;" d="M639 807c7 23-4 44-26 43-11-1-24-10-31-19-132-181-264-362-394-543-7-9-9-24-7-34 4-14 19-16 33-16 55 0 111-1 167-2 23 0 47 0 74 0-4-12-6-20-8-28-33-103-66-207-99-310-7-23-3-35 13-44 16-8 29-4 43 15 133 182 267 364 401 546 8 11 16 24 6 36-7 8-20 14-31 14-76 2-151 1-227 1-6 0-13 0-22 0 7 24 14 45 21 66 29 92 58 183 87 275z" horiz-adv-x="1000" />

<glyph glyph-name="otro" unicode="&#xe82f;" d="M508 19h-61c-38 0-69-31-69-69v-31c0-38 31-69 69-69h61c38 0 69 31 69 69v31c0 38-31 69-69 69z m80 200c9 21 27 43 54 64 51 33 93 74 127 122 33 49 50 102 50 160 0 88-29 157-86 208-58 51-137 77-238 77-94 0-170-23-229-69-58-46-86-112-85-199l1-4h135c30 0 55 20 66 48 6 15 15 29 27 39 23 20 52 30 85 30 41 0 72-12 94-35 22-24 33-56 33-98 0-37-10-71-29-101-19-30-45-59-77-85-55-42-91-77-109-107-9-14-16-33-21-55-9-43 24-84 68-84h58c35 0 62 26 68 59 2 11 5 21 8 30z" horiz-adv-x="1000" />

<glyph glyph-name="vehiculo" unicode="&#xe830;" d="M921 443c-17-1-25 6-30 22-19 55-42 109-60 164-15 47-46 73-91 88-54 19-109 21-165 24-94 5-188 6-281-14-54-12-106-31-127-92-17-49-37-97-53-147-10-29-18-54-56-45-4 1-9-1-13-3-22-7-50-55-44-78 7-28 31-15 49-18 3-1 7-1 11-2-4-24-12-46-12-70 0-92 1-185 0-277-1-23 6-40 26-51 50 0 99 0 149 0 30 16 25 44 24 70-1 24 4 32 30 32 147-2 294-2 441 0 25 0 31-8 30-32-1-26-6-54 24-70 49 0 99 0 149 0 14 9 26 19 26 37-4 121 9 241-10 363 11 0 23-1 35 0 16 1 27 9 23 26-12 48-21 78-75 73z m-621-228c-3-17-17-21-30-23-18-2-37 0-55 0-26-3-52-2-77 4-16 3-35 8-38 28-3 23-8 49 8 69 13 15 32 11 48 7 44-11 85-30 125-51 14-7 21-18 19-34z m-104 208c-19 5-22 12-17 29 14 51 31 101 49 151 10 30 29 42 57 50 31 8 64 12 97 14 100 4 200 8 299-9 12-2 25-5 36-8 26-7 43-21 52-48 16-49 34-98 48-148 6-19 4-26-17-31-99-23-200-27-301-31-101 3-203 7-303 31z m646-230c-19-3-39-3-53-4-26 2-48-2-69 5-10 3-19 7-22 19-2 13 0 25 11 31 48 26 96 53 152 57 25 3 35-11 38-34 6-53-3-66-57-74z" horiz-adv-x="1000" />

<glyph glyph-name="anuncios" unicode="&#xe831;" d="M873 39c42 0 71 31 63 70-5 18-17 37-31 50-54 51-74 117-84 186-8 48-6 97-14 145-18 120-86 201-200 244-14 6-34 6-42 16-8 10-4 29-5 44-2 37-39 64-75 54-32-9-48-33-47-75 1-20-5-28-25-33-70-18-125-59-168-116-44-59-57-126-58-197-2-104-22-203-102-279-5-5-11-10-12-17-4-13-10-28-8-41 6-36 28-52 69-52 122 0 245 0 367 0 72 0 144 0 215 0 53 0 105 0 157 1z m-675 92c16 33 33 63 46 94 28 71 36 145 36 221 1 92 46 158 126 198 139 69 308-32 314-187 3-66 3-133 25-196 13-38 32-73 48-110 3-6 7-11 11-20-204 0-404 0-606 0z m237-261c44-27 91-27 135 3 35 23 53 56 53 100-83 0-163 0-247 0 2-46 22-80 59-103z" horiz-adv-x="1000" />

<glyph glyph-name="guardar" unicode="&#xe832;" d="M792 840c-7 8-14 10-24 10-217 0-434 0-651 0-62 0-111-48-111-111 0-258 0-517 0-776 0-61 49-110 110-110 129 0 258 0 387 0 130 0 260 0 389 0 62 0 111 49 111 110 0 218 0 435 0 652 0 10-3 17-10 24-67 67-134 134-201 201z m-123-713c-2-86-75-163-165-160-88-2-165 75-164 166 1 86 75 163 167 162 86-2 163-75 162-168z m-13 391c-88 0-175 0-263 0-87 0-174 0-261 0-11 0-14 4-14 14 1 65 0 129 0 193 0 10 3 13 13 13 175 0 350 0 525 0 11 0 14-3 13-14 0-64 0-128 0-192 1-11-2-14-13-14z" horiz-adv-x="1000" />

<glyph glyph-name="indicadores" unicode="&#xe833;" d="M958 799c-34 7-58-18-58-55 1-255 0-510 0-765 0-36 5-31-29-31-253 0-505 0-757 0-8 0-16 0-24-1-23-3-41-20-43-43-2-19 10-39 29-48 10-4 20-3 29-3 277 0 555 0 832-1 28 0 47 11 59 36 0 293 0 585 0 877-9 15-18 31-38 34z m-843-430c140 55 280 111 420 166 36 14 72 28 110 44-1-7-2-9-2-12-6-27 5-50 29-59 25-8 48 1 60 27 17 37 33 75 49 113 10 25 2 51-22 62-40 18-80 35-121 52-21 9-46-2-57-22-11-20-6-45 12-60 5-4 13-5 16-13-4-1-8-3-12-5-173-68-346-137-519-205-20-8-36-18-45-39 0-8 0-17 0-25 25-37 40-41 82-24z m676 139c-26-56-85-81-143-59-16 6-17 1-17-13 1-127 0-254 0-380 0-29 11-39 39-39 38 0 76 0 114 0 32 0 41 10 41 43 0 166 0 332 0 497 0 7 0 13 0 19-1 0-2 0-4 1-10-23-20-47-30-69z m-434-450c0-31 9-41 40-41 38 0 76 0 113 0 31 0 41 11 41 42 0 124 0 247 0 372 0 12 0 25 0 41-62-25-120-48-178-70-14-5-17-12-17-25 1-106 0-212 1-319z m-276-5c1-24 12-35 36-36 42 0 83 0 124 0 24 1 35 12 35 37 1 102 1 203 1 308-10-3-17-6-24-8-55-20-107-48-164-59-10-2-7-10-8-15 0-76 0-152 0-227z" horiz-adv-x="1000" />

<glyph glyph-name="finalizado" unicode="&#xe834;" d="M498 850c-274-2-502-230-500-499 3-281 229-508 505-504 284 5 498 230 499 499 0 281-229 506-504 504z m2-899c-221 0-399 180-398 402 0 215 181 396 399 394 214-1 398-167 397-400 0-220-180-396-398-396z m189 508c-48-21-96-43-144-64-14-6-20-4-20 12 1 17 1 34 0 50 0 45 1 91-2 135-1 26-17 40-39 39-24 0-41-18-41-45-1-43 0-87 0-130 0 0 0 0 0 0 0-42-1-84 0-126 0-48 28-66 70-47 71 33 141 67 211 101 29 14 39 36 28 60-11 23-33 28-63 15z" horiz-adv-x="1000" />

<glyph glyph-name="facturacion" unicode="&#xe835;" d="M926 595c-93 80-187 161-280 241-11 10-24 14-40 14-152 0-304 0-456 0-52 0-81-25-81-70 0-104 0-208 0-312 0-182-1-365 0-548 0-12 3-24 8-35 9-20 30-29 53-35 250 0 500 0 751 0 49 16 61 31 61 77 0 212 0 424 0 635 0 13-5 24-16 33z m-275 144c54-46 108-92 162-139-52 0-107 0-162 0 0 47 0 94 0 139z m217-826c-242 0-484 0-726 0 0 291 0 582 0 874 145 0 290 0 436 0 0-4 0-7 0-10 0-57 0-114 0-170 0-44 30-70 81-70 65 0 131 0 196 0 4 0 9 0 14 0-1-208-1-415-1-624z m-514 531c19-1 37-3 53-12 33-19 34-52 0-70-33-18-67-16-100 3-19 11-40 8-52-7-12-15-8-34 11-44 18-10 37-17 57-26 0-8 0-18 0-29 0-20 15-34 36-34 22 0 37 14 37 34 0 11 0 21 0 29 21 9 40 16 58 26 59 35 68 103 21 149-29 28-66 41-109 43-19 0-37 3-53 12-34 18-35 52-1 70 34 17 67 16 100-3 19-11 41-9 53 6 12 15 8 34-12 45-18 10-37 17-57 25 0 9 1 20 0 30 0 20-15 33-36 34-21 0-36-14-37-34 0-11 0-21 0-30-20-9-40-16-57-26-59-34-69-103-22-148 29-28 67-41 110-43z m404-282c-85 1-168 0-253 0-57 0-114 0-171 0-28 0-56 1-85 0-19 0-33-13-35-29-1-15 11-29 29-32 5-1 11-1 16-1 164 0 328 0 492 0 4 0 8 0 12 0 15 1 25 8 31 20 10 21-8 42-36 42z m-2-124c-83 0-167 0-251 0-54 0-108 0-162 0-31 0-62 0-92-1-20 0-35-12-36-28-2-15 10-30 29-33 5-1 10-1 15-1 164 0 329 0 493 0 3 0 7 0 11 0 15 2 26 8 31 21 9 21-9 41-38 42z m-138 312c23 0 47 0 70 0 23 0 46 0 69 0 23 0 39 13 40 31 0 18-17 31-40 31-46 1-92 1-139 0-24 0-40-13-40-31 0-18 17-31 40-31z m0-125c23 0 46 0 69 0 23 0 46 0 69 0 24 0 40 13 40 31 1 18-16 31-40 32-46 0-92 0-138 0-24 0-40-14-40-32 0-18 17-31 40-31z" horiz-adv-x="1000" />

<glyph glyph-name="reglamento-condensado" unicode="&#xe836;" d="M53-37c13-7 27-9 42-9 103 0 206 0 309 0 2 0 3 0 5 0 1 0 3 0 3 1 2 2 0 3-1 4-6 5-11 10-17 15-19 16-38 33-50 56-3 8-8 10-16 10-57 0-113 1-170 0-39 0-67 28-67 66 1 188 1 375 0 562 0 38 27 67 67 67 146-1 292-1 439 0 39 0 66-27 66-67-1-81 0-162 0-243 0-73 0-146 0-219 0-3-2-8 2-10 3-1 5 4 7 7 23 26 45 53 68 79 5 7 7 12 7 20 0 139 0 278 0 416 0 9 1 17 0 25-3 28-17 50-41 65-16 9-33 11-50 11-159 0-318 0-478 0-29 0-58 0-88 0-28 0-51-11-68-34-7-10-11-20-14-31 0-244 0-489 0-733 1-3 2-6 3-9 8-22 22-39 42-49z m830 375c-13-9-22-22-32-33-25-29-49-58-74-87-24-29-49-58-74-87-21-25-42-49-63-74-4-4-6-4-10-1-36 31-73 62-108 93-21 17-43 25-70 18-28-7-46-25-52-53-8-32 5-58 30-79 31-26 61-53 92-79 25-21 50-43 75-64 24-20 56-22 83-7 14 9 24 22 34 34 36 42 72 84 108 126 49 57 98 115 147 172 12 15 25 30 29 50 0 9 0 19 0 28 0 2-1 5-2 7-17 48-73 67-113 36z m-322 156c-60 0-120 0-180 0-41 0-83 0-125 0-19 0-38 1-58 0-22 0-40-14-43-35-4-20 7-39 26-46 8-4 17-4 25-4 117 0 233 0 350 0 5 0 11 0 16 1 25 4 41 28 35 52-5 20-23 32-46 32z m40 118c-10 16-26 20-44 20-117 0-235 0-352 0-6 0-11-1-16-1-18-4-31-16-34-34-3-17 4-34 19-44 9-5 19-6 29-6 60-1 119 0 178 0 58 0 116 0 174 0 6 0 12 0 18 1 29 4 45 39 28 64z m-22-335c25 6 37 37 24 59-10 15-24 21-41 21-60 0-120 0-180 0-54 0-107 0-161 0-8 0-17 0-25 0-17-1-31-8-38-24-7-15-5-30 6-43 10-14 25-16 40-16 118 0 236 0 354 0 7 0 15 1 21 3z m-383-51c-26-1-45-22-41-48 2-20 20-35 45-35 42 0 84 0 126 0 7 0 10 3 13 8 10 26 27 48 51 64 4 2 10 4 13 9-2 2-4 2-6 2-67 0-134 0-201 0z m345-6c11-5 20-13 28-21 10-8 20-17 30-25 4-4 7-3 8 2 3 15-3 32-15 41-17 13-36 7-56 9 2-4 4-5 5-6z" horiz-adv-x="1000" />

<glyph glyph-name="reglamento-completo" unicode="&#xe837;" d="M63 84c0-3 0-8 1-11 10-37 35-63 77-63 100-1 200-1 300-1 2 0 4 0 6 1-1 1-1 2-1 2-19 20-30 43-31 71 0 2-5 6-7 6-22 1-44 2-65 2-46 0-92 0-138 0-5 0-9 0-14 1-29 7-48 31-48 62 0 24 2 49 1 73 0 52-1 104-1 155 0 107 0 214 0 321 0 9 3 20 7 28 13 26 35 35 62 34 120 0 240-1 360-1 20 0 41 0 61 0 40 0 65-26 65-66 0-86 0-173 0-260 0-19 0-38 0-57 0-6 2-8 8-9 9 0 18-1 26-5 16-7 31-16 46-24 0 0 0 2 0 4 0 143 0 286 0 429 0 4-1 8-2 12-16 40-42 57-85 57-179 0-357 0-536 0-9 0-19 0-28-2-40-5-64-44-64-73 0-228 0-457 0-686z m698 81c0 34 0 68 0 102-1 37-37 66-72 59-32-7-51-29-52-61 0-33 0-67 0-100 0-15 0-15-14-15-17 0-34 0-51 0 0 0 0 0 0 0-18 0-35 0-52-1-34-1-60-29-60-62 1-33 28-61 62-61 34 0 67 0 100 0 15 0 15 0 15-14 0-35 1-69 0-103 0-29 27-61 66-59 31 2 58 28 58 61 0 33 0 66 0 100 0 15 0 15 15 15 33 0 67 0 100 0 40 0 70 39 59 77-7 27-29 46-56 46-35 1-69 1-103 1-15 0-15 0-15 15z m-533 420c8-3 17-4 26-4 112-1 225-1 337-1 6 0 12 1 19 2 16 3 26 12 31 27 6 16 2 30-10 42-11 11-25 14-40 14-58 1-116 1-174 1-59 0-117 0-175 0-24 0-40-13-43-33-4-23 7-40 29-48z m-19-116c13-13 27-20 47-20 56 1 112 0 168 0 25 0 51 0 77 0 35 0 69 0 103 1 18 0 31 9 37 26 6 16 2 30-9 42-12 11-26 17-43 17-114 0-229 0-344 0-7 0-14-1-21-3-26-9-34-43-15-63z m380-64c-110 0-221 0-331 0-9 0-18-1-27-2-15-3-26-12-30-28-5-14-2-28 9-39 12-11 25-17 42-17 56 1 113 0 170 0 58 0 116 0 174 1 4 0 9 1 12 4 11 10 21 20 31 31 2 2 4 7 3 10-4 22-28 40-53 40z m-374-206c9-5 21-8 32-8 67-1 134-1 201 0 19 0 39 2 58 4 7 0 15 1 22 1 18 1 36 1 53 0 8 0 10 3 10 10-1 18-1 36 0 53 0 9-3 12-12 12-56 0-113 0-170 0 0 0 0 0 0 0-57 0-114 0-171 0-18 0-32-12-38-29-5-16 0-35 15-43z" horiz-adv-x="1000" />

<glyph glyph-name="servicios" unicode="&#xe838;" d="M918 198c-19-5-38-11-58-16-45-13-91-26-137-39 5-39-6-70-38-90-33-21-66-15-98 4-31 18-62 35-93 53-3 1-6 4-9 6 4 7 7 12 11 18 39-22 76-43 113-63 32-17 67-6 84 23 17 31 7 61-28 80-85 48-172 95-257 144-31 18-62 22-97 12-96-29-194-55-291-83-5-1-10-4-17-7 21-72 42-143 63-216 63 18 122 36 182 51 11 3 27 1 38-5 53-31 106-64 157-98 35-22 71-26 110-15 53 16 106 31 160 46 80 23 160 45 240 69 37 10 56 49 45 84-10 36-42 52-80 42z m-372 278c8-18 15-36 20-49-3-24-47-28-16-59 37-38 36-38 77-6 13-5 25-13 38-16 18-5 26-12 25-32 0-6 10-17 18-18 14-3 29-3 44 0 6 1 16 10 16 14-3 24 8 34 30 39 10 2 19 9 30 14 35-29 35-29 67 3 2 2 3 4 5 6 14 11 15 22 0 33-29 21 1 40 3 59 2 19 17 15 28 14 19-1 24 7 24 24 1 52 1 52-50 57-4 10-6 22-12 31-14 21-12 37 9 52 12 8 10 18 0 28-38 43-37 43-81 7-17 7-35 14-52 22-8 19 13 52-32 50-45-3-45 0-51-49-19-7-37-15-55-22-42 35-42 36-55 23-13-13-32-27-34-41-1-13 19-28 29-42-9-20-17-40-25-58-17-8-48 12-47-29 2-49 0-49 47-55z m180 154c61 0 110-51 110-112 0-62-50-112-111-112-62 0-112 51-111 114 1 61 50 110 112 110z" horiz-adv-x="1000" />

<glyph glyph-name="proveedores" unicode="&#xe839;" d="M976 278c-7 19-20 25-40 19-118-40-235-79-353-118-7-2-10-2-15 3-29 33-66 53-110 56-8 1-12 4-14 12-38 114-76 227-114 341-17 53-35 106-53 159-9 27-29 39-57 40-30 0-61 0-91 0-31 0-62 0-93 0-21 0-32-11-32-33 0-15 0-31 0-46 0-22 10-33 32-33 46 0 92 0 138 0 8 0 11-2 13-9 18-55 36-111 55-166 32-97 64-193 97-289 2-9 0-13-6-18-34-31-53-70-54-115-2-51 15-94 52-129 40-37 87-49 140-41 39 6 72 25 98 56 24 27 37 58 39 95 1 7 4 10 10 12 117 39 235 78 352 117 22 7 28 20 21 42-4 15-10 30-15 45z m-531-286c-46 0-82 36-83 82 0 44 36 81 80 82 46 0 83-34 84-84 0-42-38-80-81-80z m-2 518c21-63 42-126 63-190 2-6 6-10 12-12 25-8 48-20 69-35 5-4 10-4 16-2 39 13 78 26 117 39 49 16 99 33 148 49 11 4 19 9 22 21 3 8 1 15-2 23-20 60-40 120-60 181-14 40-27 81-41 121-5 15-14 22-28 22-4 0-8-2-13-3-30-10-60-20-90-30-11-4-11-4-7-14 16-51 33-102 50-153 2-5 2-8-4-10-29-9-58-19-86-29-8-2-11-1-13 7-17 51-34 101-50 152-3 7-6 9-13 6-31-11-62-21-93-31-20-7-27-21-20-41 7-23 15-47 23-71z" horiz-adv-x="1000" />

<glyph glyph-name="180-dias" unicode="&#xe83a;" d="M764 555c-8 7-18 12-29 12-13 0-27 0-41 0h-4v4 26c0 10-3 19-9 26-9 10-19 16-32 18-9 1-19 1-28 1-17 0-31-4-43-16-6-7-11-14-12-24-1-10-1-21-1-31v-4h-125v4 26c-1 10-4 18-10 26-9 10-19 16-32 18-9 1-18 1-27 1-14 1-27-2-38-11-8-6-14-13-17-22-1-4-1-9-2-14 0-8 0-16 0-24v-4h-41c-8 0-17-1-24-6-9-6-15-13-18-23 0-4 0-7 0-10v-367c0-8 1-15 6-22 2-2 3-5 6-7 9-7 19-11 31-11 152 1 304 0 457 1 3 0 7 0 10 0 15 3 27 11 32 26 1 4 1 8 1 13 0 122 0 245 1 367-1 11-4 20-11 27z m-157-2v40c0 7 4 11 10 11 7 0 14 0 22 0 7 0 10-4 10-10v-82c0-6-4-10-10-10-8 0-15 0-23 0-5 0-9 5-9 10v41z m-251 4c0 12 0 24 0 36-1 7 4 11 10 11h21c6 0 11-4 11-11-1-13 0-27 0-40 0-13-1-27 0-40 0-7-5-11-11-11-7 0-14 0-21 0-6 0-11 5-10 11 0 14 0 29 0 44z m376-399h-460v298h460v-298z m-384 165v-105h48v154h-37l-44-20 8-40z m87-61c0-22 19-46 60-46 37 0 62 20 62 50 0 14-7 27-19 35 9 8 14 19 14 30 0 21-17 43-55 43-33 0-57-19-57-46 0-12 5-22 14-30-12-9-19-21-19-36z m61 75c7 0 9-5 9-9 0-5-3-8-7-10-5 2-11 5-11 11 0 3 1 8 9 8z m-2-59c14-5 14-12 14-15 0-6-5-9-12-9-3 0-6 1-9 3-2 2-3 5-3 8 0 8 5 11 10 13z m132-62c39 0 62 30 62 80 0 49-23 78-60 78-38 0-62-30-62-79 0-49 24-79 60-79z m-11 79c0 26 5 35 8 37 1 2 2 2 4 2 8 0 12-14 12-39 0-24-4-39-12-39-2 0-3 0-4 2-3 2-8 11-8 37z m-114 554c-276 0-500-224-500-500 0-275 224-499 500-499s499 224 499 499c0 276-224 500-499 500z m0-965c-257 0-466 209-466 465 0 257 209 466 466 466 256 0 465-209 465-465 0-257-209-466-465-466z" horiz-adv-x="1000" />

<glyph glyph-name="foto-factura" unicode="&#xe83b;" d="M880 607c-32-1-64 0-96 0-23 0-38 11-45 32-9 26-17 52-26 78-10 29-25 40-54 40-108 1-215 1-322 0-30 0-44-11-54-40-8-23-16-46-24-69-11-34-21-41-57-41-29 0-59-1-88 0-58 2-97-23-117-77 0-167 0-335 0-502 21-56 62-77 120-77 254 1 508 1 761 0 58 0 99 22 120 77 0 167 0 335 0 502-20 55-60 80-118 77z m-380-551c-137-1-247 109-249 248-2 136 107 246 244 248 139 1 248-106 250-246 2-136-109-249-245-250z m361 382c-17 1-30 15-30 32 0 18 15 32 33 32 17-1 31-16 30-34 0-18-15-31-33-30z m-369 18c-81-1-149-73-146-153 2-86 71-153 154-151 84 2 152 71 150 153-2 88-70 153-158 151z" horiz-adv-x="1000" />

<glyph glyph-name="miniatura" unicode="&#xe83c;" d="M555 842c-4 0-8 2-13 3-30 0-61 0-92 0-9-4-12-10-10-21 2-19 3-38 6-57 7-49 2-41 45-41 6 0 12 0 18 0 221-3 400-211 359-447-31-182-199-328-400-313-7 1-16 1-17-9-3-36-15-72-9-109 36 0 73 0 109 0 49 10 98 19 143 40 163 77 260 205 292 384 1 7 3 13 4 19 0 36 0 71 0 107-9 43-16 87-33 128-75 181-209 287-402 316z m-418-608c-5 18-9 36-13 54-2 11-7 17-19 15-32-4-65-8-98-12 0-7 0-15 0-22 6-23 12-46 18-68 3-14 10-18 24-13 25 9 51 18 76 26 10 4 15 9 12 20z m-13 171c4 17 7 35 12 51 4 14-1 19-13 23-24 8-48 17-72 26-15 6-23 1-27-14-5-22-11-44-17-67 0-7 0-14 0-22 32-4 64-8 96-12 12-2 19 2 21 15z m162-510c46-22 46-22 62 26 7 20 14 39 21 58-4 16-18 17-29 21-17 6-31 27-47 19-13-7-20-27-30-42-34-54-34-54 23-82z m-127 111c19 19 39 38 58 57 4 4 9 8 9 15-1 2-2 4-3 6-14 18-28 36-42 54-4 6-10 4-15 0-26-16-51-32-76-48-9-5-10-11-5-20 16-22 32-44 51-63 8-8 15-9 23-1z m141 666c19 13 42 22 64 33 6 3 5 9 3 14-10 28-20 55-30 83-4 11-10 14-20 9-24-10-47-20-69-33-12-7-14-15-6-27 15-23 29-46 43-69 3-5 5-11 15-10z m-164 14c-19-19-34-40-50-62-7-10-5-17 5-23 20-11 39-24 58-36 26-17 26-17 45 9 8 10 17 20 25 31 3 3 5 7 7 11-2 3-3 6-5 8-21 22-43 44-65 66-8 7-14 2-20-4z" horiz-adv-x="1000" />

<glyph glyph-name="estacionamiento" unicode="&#xe83d;" d="M338-109h327c61 0 118 33 149 86l163 283c31 53 31 119 0 172l-163 283c-31 53-88 85-149 85h-327c-61 0-118-32-149-85l-163-284c-31-53-31-118 0-171l163-283c31-54 88-86 149-86z m-50 730h363v-87h-256v-143h220v-87h-220v-162h257v-87h-364v566z" horiz-adv-x="1000" />

<glyph glyph-name="no-asignado" unicode="&#xe83e;" d="M725 405c50 49 99 99 148 148 29 29 45 63 48 104-6 54-28 96-79 120-53 24-102 16-144-23-51-46-98-95-146-143-51-50-51-50-99-2-44 44-87 88-131 131-66 64-142 67-199 10-57-56-54-133 9-198 48-51 97-100 148-148 24-23 24-42 0-66-50-48-100-98-148-148-63-65-66-142-9-199 57-56 133-53 199 11 45 44 89 89 134 134 45 45 46 45 92-2 44-43 87-87 132-130 67-66 145-70 202-11 56 57 52 133-12 199-48 49-96 98-145 145-26 24-26 44 0 68z" horiz-adv-x="1000" />

<glyph glyph-name="asignado" unicode="&#xe83f;" d="M283-24c7-6 13-11 21-15 34-18 71-11 101 19 189 189 377 378 566 566 2 2 4 4 5 6 31 33 32 79 3 113-11 12-23 24-35 35-14 13-32 20-51 21-28 1-50-11-69-31-158-157-315-315-473-473-7-7-11-7-19 0-53 54-107 108-161 162-35 35-85 35-120 1-9-9-18-18-27-27-16-16-24-36-24-59 0-23 8-42 25-59 86-86 172-172 258-259z" horiz-adv-x="1000" />

<glyph glyph-name="auto" unicode="&#xe840;" d="M804 457c-24 1-40 10-54 27-35 44-72 87-108 130-14 17-31 27-52 29-58 7-116 3-173 3-38 1-75 2-112-2-19-2-33-10-44-26-24-33-50-66-75-99-57-73-33-60-125-61-23-1-41-7-53-27 0-74 0-147 0-220 8-11 16-23 32-23 21-1 42-2 64-3 13-1 20 5 25 18 19 61 63 95 122 96 62 1 106-28 128-90 7-19 17-25 37-25 55 1 109 2 164 0 25-1 38 6 47 31 17 48 52 78 105 83 58 6 108-14 129-67 17-44 42-52 82-44 2 1 4 1 6 0 23-2 38 8 47 28 0 34 0 68 0 101-5 18-10 35-19 51-40 66-102 88-173 90z m-380 18c0-9-2-17-13-17-56 0-112 0-173 0 26 35 47 66 72 94 7 8 16 13 26 13 25 1 49 0 73 1 11 0 15-6 15-16 0-25 0-50 0-75z m96-17c-10 0-15 5-15 15 0 26 0 53 0 79 0 10 6 13 16 14 38 3 72-4 94-40 15-23 34-42 55-68-54 0-102 0-150 0z m228-198c-47 0-90-43-90-90 0-49 44-92 92-91 48 1 89 43 88 91 0 49-42 90-90 90z m-492 0c-47 1-89-41-90-89-1-48 40-91 88-92 48 0 92 42 92 90 0 46-43 90-90 91z" horiz-adv-x="1000" />

<glyph glyph-name="ubicacion" unicode="&#xe841;" d="M486 848c-189 0-342-153-342-342 0-8 0-16 1-25 4-57 23-111 52-157l254-455c14-25 51-25 65 0l258 454c34 52 54 116 54 183 0 189-153 342-342 342z m0-467c-69 0-125 56-125 125 0 69 56 125 125 125s125-56 125-125-56-125-125-125z" horiz-adv-x="1000" />

<glyph glyph-name="secciones-1" unicode="&#xe842;" d="M1000 186c0 61-48 111-108 112-77 1-155 1-232 0-57-1-106-49-107-106-2-78-2-157 0-235 1-60 51-107 110-107 77 0 153 0 229 0 58 0 108 50 108 108 0 39 0 77 0 116 0 37 0 75 0 112z m-114-209c0-10-4-13-13-13-65 0-129 0-193 0-12 0-14 4-14 14 0 64 0 128-1 192 0 12 4 15 16 15 31-1 63-1 95-1 0 0 0 0 0 0 32 0 64 0 96 1 11 0 14-4 14-15 0-64 0-129 0-193z m5 877c-38 0-76 0-114 0 0 0 0 0 0 0-38 0-76 0-114 0-59 0-110-49-111-108 0-77-1-154 0-231 1-58 50-108 108-109 77 0 154-1 232 0 60 1 107 51 108 111 0 76 0 152 0 228-1 60-50 109-109 109z m-20-334c-31 1-63 0-95 0-32 0-64 0-96 0-10 0-14 2-14 13 0 65 0 129 0 194 0 11 4 13 14 13 64 0 128 0 193 0 11 0 14-4 14-15-1-63-1-127 0-190-1-11-3-16-16-15z m-537-222c-77 0-153 0-230 0-59-1-108-51-108-110 0-39 0-77 0-115 0-37 0-75 0-112 0-61 49-111 110-111 75 0 151 0 226 0 62 0 111 49 112 110 0 77 1 153 0 229-1 59-51 108-110 109z m-18-334c-64 0-129 0-193 0-11 0-13 4-13 13 0 65 0 129 0 194 0 11 4 13 14 13 64 0 128 0 192 0 11 0 14-3 14-15 0-31 0-63 0-95 0-31 0-63 0-95 1-11-2-15-14-15z m17 890c-76 0-152 0-228 0-59 0-108-50-109-109 0-38 0-76 0-114 0-38 0-76 0-114 0-59 49-110 108-111 77 0 154 0 231 0 58 1 108 51 108 109 1 77 1 154 0 231 0 59-50 108-110 108z m-18-334c-32 0-64 0-96 0-32 0-64 0-95 0-11 0-14 3-14 14 0 64 0 129 0 193 0 10 3 13 13 13 65 0 129 0 193 0 11 0 14-4 14-14 0-64 0-128 0-192 0-11-3-14-15-14z" horiz-adv-x="1000" />

<glyph glyph-name="notas" unicode="&#xe843;" d="M832 576h-56c-21 0-38 19-34 41l29 179c3 22-13 41-35 41h-84c-17 0-32-12-35-29l-32-202c-3-17-17-30-35-30h-25c-21 0-38 20-34 41l29 180c4 21-13 40-34 40h-84c-17 0-32-12-35-29l-32-202c-3-17-18-29-35-29h-101c-19 0-35-16-35-36v-104c0-19 16-35 35-35h61c22 0 38-19 35-41l-7-42c-2-17-17-30-34-30h-94c-19 0-35-16-35-35v-100c0-20 16-35 35-35h54c22 0 38-20 35-41l-29-181c-3-21 13-41 35-41h84c17 0 32 13 34 30l32 203c3 17 18 30 35 30h26c22 0 38-20 35-41l-29-181c-4-21 13-41 34-41h84c17 0 32 13 34 30l34 204c2 16 17 29 34 29h103c20 0 35 16 35 35v100c0 20-15 36-35 36h-64c-22 0-39 19-35 40l6 43c3 17 18 29 35 29h95c20 0 36 16 36 35v105c0 18-16 34-36 34z m-286-215l-7-43c-3-17-18-29-35-29h-25c-21 0-38 19-34 40l6 43c3 17 18 29 35 29h25c21 1 38-19 35-40z" horiz-adv-x="1000" />

<glyph glyph-name="tag" unicode="&#xe844;" d="M924 837l-1 0-373 0c-27-5-46-21-60-35-150-151-302-302-453-453-10-10-21-23-27-42l-1-32 1-2c5-22 20-36 33-49l343-342c12-13 25-21 39-25l33-1 2 1c19 5 32 17 42 27 151 151 302 303 454 454 14 13 30 32 34 61v369l0 3c-9 34-32 56-66 66z m-38-450c-113-112-226-224-338-337l-102-102c-1-1-2-2-3-3-20 19-39 39-58 58l-283 283c-1 1-2 3-3 4 1 1 2 2 3 3l76 76c125 125 250 250 375 375 5 6 10 8 17 9 26 1 53 1 78 1 12 0 24-1 36-1 50 1 101 1 151 0l61 0c8 0 10 0 10 0 0-1 1-3 1-11l0-113 0-87c-1-35-1-69 0-104 1-21-5-36-21-51z m-147 331c0 0 0 0 0 0-73 0-132-59-132-131 0-75 58-133 134-133 0 0 0 0 0 0 34 0 67 14 92 39 24 25 38 57 38 91 0 76-56 134-132 134z m34-165c-9-9-21-15-33-14-26 0-48 21-48 47 0 26 21 47 48 47 0 0 0 0 0 0 25 0 47-21 47-48 0-11-5-23-14-32z" horiz-adv-x="1000" />

<glyph glyph-name="olvide-password" unicode="&#xe845;" d="M188 496h83c13 0 21 6 21 19v2c0 118 102 216 223 208 110-9 194-104 194-217v7c0-13 8-19 21-19h83c12 0 21 6 21 19v2c0 189-158 341-350 333-177-9-312-158-317-335 2-11 10-19 21-19z m645-84h-666c-46 0-84-37-84-83v-396c0-46 38-83 84-83h666c46 0 84 37 84 83v396c0 46-38 83-84 83z m-309-490c-9-10-21-14-35-14-14 0-26 4-35 14-9 10-14 22-14 36 0 15 5 27 14 36 9 9 21 14 35 14 14 0 26-5 35-14 9-9 13-21 13-36 0-15-4-27-13-36z m104 282c-6-13-12-23-20-31-8-9-18-18-31-30-17-15-30-28-38-39-6-8-10-18-11-28-2-8-9-14-17-14h-39c-10 0-18 9-17 19 1 9 3 17 6 25 5 12 11 22 18 31 7 8 16 17 27 28 14 12 23 23 30 32 6 9 9 20 9 34 0 14-5 25-13 33-9 7-21 11-37 11-32 0-50-15-55-45-1-8-9-15-17-14l-41 0c-10 0-18 9-17 19 3 35 15 63 36 83 25 25 59 37 102 37 41 0 73-10 97-29 24-19 36-45 36-80 0-16-3-30-8-42z" horiz-adv-x="1000" />

<glyph glyph-name="codigo" unicode="&#xe846;" d="M518 371c14 6 26 10 38 16 10 4 16 1 20-10 1-4 3-9 4-14 3-8-1-14-10-17-12-3-24-5-37-8-1 0-1-1-3-1 8-10 15-18 22-27 2-2 4-4 6-6 5-6 4-13-2-18-5-4-10-8-15-11-8-5-14-4-19 4-7 11-14 23-21 34 0 1-1 1-1 1-7-11-13-22-20-33-7-11-12-12-23-4-4 2-7 5-11 7-8 6-9 13-2 20 8 11 17 20 27 31-5 2-8 3-11 4-10 2-20 4-30 7-9 2-12 8-10 16 2 6 3 11 5 17 4 8 10 11 18 8 13-6 25-11 39-17-1 12-1 22-2 33-3 22 0 25 21 25 3 0 5 0 8 0 9-1 13-5 13-14-1-14-3-28-4-43z m193-34c9-11 17-21 25-31 9-9 8-15-2-23-4-2-7-5-11-8-9-5-15-4-21 5-5 9-11 19-17 28-1 2-2 4-4 7-7-12-14-23-21-34-6-11-12-12-21-5-4 3-8 5-12 8-8 6-9 13-2 21 8 10 17 20 27 31-13 3-26 6-38 9-4 1-9 3-12 6-5 7 3 34 12 37 3 1 7 0 10-1 13-5 25-11 39-16-1 13-2 26-3 38-2 14 3 19 17 19 4 0 9 0 13 0 9 0 13-5 13-14-1-10-2-20-3-30 0-4 0-8-1-13 13 5 24 10 35 15 14 6 19 4 23-10 2-4 3-9 4-13 3-8-1-14-9-16-12-3-25-6-37-9-1 0-2-1-4-1z m-374 34c13 5 25 10 37 15 12 5 17 3 21-10 2-3 3-7 4-11 3-11 0-16-10-19-13-3-26-6-40-9 8-10 16-19 24-29 10-12 10-17-3-26-3-2-6-4-9-6-8-6-15-5-20 4-7 10-13 20-19 30 0 2-1 3-3 5-7-11-13-22-19-32-8-13-13-14-25-5-4 2-7 4-10 7-8 5-9 13-3 19 9 11 18 21 28 32-9 2-16 4-23 5-6 2-12 3-19 5-8 2-12 8-9 16 1 6 3 12 5 18 3 8 9 10 17 7 13-5 26-10 40-16-1 10-2 20-2 29-1 5-1 10-1 15 0 7 4 12 11 13 7 0 14 0 20 0 8-1 13-7 12-15-1-14-2-27-4-42z m119 382c-11 10-23 18-33 28-13 12-18 27-10 44 13 29 45 33 68 10 32-31 64-63 97-94 14-12 21-26 17-44-3-10-12-20-20-28-29-32-59-64-90-94-22-21-45-18-64 7-9 14-5 34 9 49 5 6 10 11 15 16 5 6 10 11 13 22-19-4-39-5-57-12-61-19-111-54-150-104-25-32-45-66-55-106-8-32-18-64-18-96 0-34 4-69 16-103 17-49 42-91 80-125 22-20 47-37 70-54 16-11 23-39 14-55-11-17-36-23-54-12-82 47-139 116-174 203-28 68-34 139-24 210 13 92 58 169 128 231 46 40 97 70 156 86 20 5 40 11 60 16 3 2 5 3 6 5z m91-802c9-11 18-22 29-31 16-12 15-29 12-46-4-15-20-24-32-24-13 0-28 8-38 18-32 28-63 59-94 89-30 28-26 47-1 72 28 28 54 57 81 85 8 8 18 15 28 20 17 8 33 2 45-14 8-11 7-37-3-47-11-13-23-25-33-42 19 3 39 4 57 10 52 18 100 45 137 87 36 40 62 87 75 140 9 34 15 68 13 103-6 68-28 130-73 182-25 29-54 53-87 73-35 20-34 54-4 73 17 10 34 3 49-7 65-40 114-96 148-164 27-52 40-107 42-166 4-95-23-178-80-253-38-50-86-88-141-116-29-15-63-22-95-33-10-3-22-6-35-9z" horiz-adv-x="1000" />

<glyph glyph-name="pago-efectivo" unicode="&#xe847;" d="M501 849c-276 0-499-224-499-500 0-275 223-499 499-499 276 0 499 224 499 499 0 276-223 500-499 500z m27-745v-77h-61v73c-47 1-94 15-121 32l20 71c29-18 71-33 116-33 47 0 79 23 79 59 0 33-26 55-81 75-78 28-129 64-129 134 0 64 45 113 120 126v73h61v-69c47-2 79-13 103-25l-20-68c-18 8-51 25-101 25-52 0-71-27-71-52 0-31 27-48 90-73 84-31 121-72 121-138 0-64-44-119-126-133z" horiz-adv-x="1000" />

<glyph glyph-name="pagado-2" unicode="&#xe848;" d="M500 847c-275 0-498-224-498-499 0-275 223-498 498-498s498 223 498 498c0 275-223 499-498 499z m-75-776c-82 83-165 168-248 252 26 26 53 54 81 82 54-56 110-113 165-169 114 116 226 229 339 344 30-30 57-58 83-84-140-141-280-284-420-425z" horiz-adv-x="1000" />

<glyph glyph-name="vencidos" unicode="&#xe849;" d="M375 539c21 25 52 43 93 50v73h61v-69c47-2 79-13 103-25l-20-69c-18 9-51 26-102 26-41 0-61-17-68-37l496-378c39 71 61 152 61 239 0 276-223 500-499 500-135 0-257-54-346-141l221-169z m253-349c-20-30-55-53-104-61v-77h-61v72c-47 2-94 15-121 33l21 70c29-17 70-32 116-32 43 0 73 19 78 50l-481 367c-47-77-75-166-75-263 0-276 223-499 499-499 144 0 274 61 365 159l-237 181z" horiz-adv-x="1000" />

<glyph glyph-name="pago" unicode="&#xe84a;" d="M497-149c279-1 502 220 503 497 1 275-221 498-496 499-275 1-499-221-500-494-1-275 221-501 493-502z m38 428c-18 13-41 21-62 31-29 14-60 24-87 42-75 51-76 158-1 211 22 16 50 26 78 40 0 20 0 43 0 68 27 0 52 0 80 0 0-22 0-44 0-65 31-7 61-12 90-20 26-7 26-8 19-34-6-21-12-43-18-66-8 3-15 5-21 8-36 15-73 20-111 17-9-1-20-4-28-8-24-12-29-42-9-59 15-12 33-21 50-29 25-12 52-20 78-33 62-30 91-77 86-136-5-67-44-108-106-131-5-1-11-4-17-5-15-1-18-9-17-23 1-13-1-27 1-40 1-18-6-23-24-22-18 1-35 0-56 0 0 25 0 49 0 71-37 9-72 16-107 26-30 9-29 11-21 41 5 21 11 42 16 60 38-9 74-21 111-27 21-3 45-1 65 6 38 13 44 54 11 77z" horiz-adv-x="1000" />

<glyph glyph-name="inicio" unicode="&#xe84b;" d="M29 304c12-13 26-14 40-4 10 7 20 16 30 23 4 4 8 11 13 9 7-3 3-11 3-17 0-97 0-194 0-291 0-36 23-60 59-60 71-1 142-1 213 0 37 0 59 22 59 60 0 51 1 103 0 155-1 16 5 20 19 19 25-1 50-1 74 0 14 1 18-3 17-17 0-53 0-106 0-159 0-34 24-58 56-58 73-1 146-1 219 0 34 0 56 23 56 57 0 49 0 98 0 146 0 42 0 84 0 126 0 13-6 33 4 38 9 4 21-13 32-21 29-24 36-23 61 6 20 23 18 36-6 55-26 20-51 42-77 62-11 8-15 17-14 31 0 45-1 91 0 137 1 16-6 22-21 22-14 0-27 0-41 0-14 0-21-6-20-21 1-21 1-41 0-62 0-7 4-17-4-20-7-3-12 7-18 10-2 1-3 3-4 4-72 58-143 117-214 175-39 32-89 31-127 0-138-113-276-227-415-340-22-18-23-29-6-51 4-5 8-9 12-14z m171-75c0 54 0 109-1 163 0 10 4 18 12 25 93 75 186 150 279 226 9 8 15 8 24 1 92-76 185-151 277-226 10-8 15-16 15-29-1-108-1-216 0-324 0-15-5-20-20-20-43 1-86 1-129 0-13 0-17 4-17 17 1 50 0 100 1 150 1 37-21 70-67 68-51-3-102-1-153-1-34 0-56-22-56-56-1-53-1-106 0-159 0-15-5-19-19-19-43 1-86 1-129 0-14 0-18 4-18 18 1 55 1 110 1 166z" horiz-adv-x="1000" />

<glyph glyph-name="recibo-seleccion" unicode="&#xe84c;" d="M873 390c-67 26-95 44-95 76 0 26 20 54 75 54 36 0 63-8 83-16 13-5 28 2 32 15l7 26c4 12-2 24-14 29-18 7-40 13-68 16-12 1-21 11-21 23v27c0 13-10 23-24 23h-17c-13 0-24-10-24-23v-34c0-11-7-20-18-23-68-18-108-67-108-128 0-72 53-110 136-139 58-21 86-44 86-79 0-37-34-61-84-61-36 0-70 9-98 22-13 6-29-1-33-15l-8-27c-3-12 2-24 13-29 24-11 55-19 88-23 13-1 22-12 22-24v-29c0-13 10-23 24-23h17c13 0 24 10 24 23v38c0 11 8 20 19 23 74 19 114 73 114 134 0 69-39 111-128 144z m-867 145h590c0 0 1 0 1 1v83c0 1 0 2-1 2h-590c-1 0-2-1-2-2v-83c0-1 1-1 2-1z m0-232h590c0 0 1 0 1 1v83c0 1 0 2-1 2h-590c-1 0-2-1-2-2v-83c0-1 1-1 2-1z m0-223h590c0 0 1 1 1 2v83c0 0 0 1-1 1h-590c-1 0-2-1-2-1v-83c0-1 1-2 2-2z" horiz-adv-x="1000" />

<glyph glyph-name="mensajes" unicode="&#xe84d;" d="M864 847c-240 0-480 0-720 0-89 0-138-50-138-139-1-175-1-349 0-524 0-95 48-141 145-142 55 0 110 0 173 0 0-68 0-126 0-196 26 17 40 25 54 35 71 53 135 126 215 152 82 27 179 8 269 9 85 1 136 47 137 130 1 181 1 362 0 544-1 83-51 131-135 131z m51-656c0-44-15-62-61-61-80 3-160-1-240 1-89 2-127-84-206-111-3 39-5 72-8 111-86 0-168 2-249-1-46-1-61 18-61 61 2 170 2 339 0 509 0 45 18 59 63 59 233-2 466-2 700 0 44 0 62-13 62-60-2-169-2-338 0-508z" horiz-adv-x="1000" />

<glyph glyph-name="365-dias" unicode="&#xe84e;" d="M757 554c-8 8-18 12-29 13-13 0-27 0-41 0h-4v4 26c0 10-3 19-10 26-8 10-19 16-31 18-10 1-20 1-29 1-17 1-31-4-43-16-7-7-12-15-13-24 0-11 0-21 0-32v-3h-127v3 27c0 9-3 18-10 26-8 10-19 16-32 18-9 1-18 1-27 1-14 1-27-2-38-11-8-6-14-13-17-22-2-5-2-10-2-14 0-8 0-17 0-25v-3h-42c-8 0-17-2-24-7-9-5-15-13-18-23-1-4-1-7-1-10v-370c0-8 2-15 6-21 2-3 4-5 7-7 9-8 19-11 31-11 153 0 307 0 460 0 3 0 7 0 10 1 16 2 27 11 32 26 2 4 2 8 2 12v370c0 11-3 20-10 27z m-158-2v41c0 7 4 11 10 11 7 0 15 0 22 0 7 0 10-4 10-10v-82c0-7-4-10-10-11-8 0-15 0-23 0-6 0-10 5-10 10 1 14 1 28 1 41z m-253 4c0 12 0 25 0 37 0 7 4 11 11 11h21c6 0 11-4 11-11-1-14-1-27-1-41 0-13 0-27 1-40 0-7-5-11-11-11-7 0-14 0-22 0-6 0-10 5-10 11 0 15 0 29 0 44z m379-401h-463v300h463v-300z m-372 105c-10 0-22 4-29 7l-8 5-11-39 5-3c8-6 25-11 45-11 39 0 65 20 65 49 0 15-7 28-20 35 10 8 15 18 15 31 0 20-17 42-54 42-20 0-38-6-47-11l-5-4 11-38 9 5c4 3 15 7 25 7 4 0 13 0 13-6 0-6-10-8-17-8h-21v-39h21c3 0 21 0 21-12 0-10-14-10-18-10z m145-41c33 0 59 24 59 57 0 31-21 53-51 53-3 0-5-1-8-1 6 4 14 6 24 7 5 0 8 0 11 0l9 0v40l-8 0c-3 0-8 0-14 0-23-1-43-9-58-22-18-16-28-40-28-67 0-41 25-67 64-67z m-15 63l0 0c2 5 7 8 13 8 12 0 13-12 13-16 0-7-3-16-11-16-13 0-15 15-15 20-1 3 0 4 0 4z m129-23c-12 0-24 4-28 6l-9 5-9-40 5-2c11-6 27-9 43-9 44 0 67 28 67 56 0 17-7 32-20 40-10 8-25 12-41 12l1 5h55v42h-92l-11-89 10 1c6 1 11 2 18 2 31 0 31-12 31-15 0-11-12-14-20-14z m-111 590c-276 0-500-224-500-500 0-275 224-499 500-499s499 224 499 499c0 276-224 500-499 500z m0-965c-257 0-466 209-466 465 0 257 209 466 466 466 256 0 465-209 465-466 0-256-209-465-465-465z" horiz-adv-x="1000" />

<glyph glyph-name="abono" unicode="&#xe84f;" d="M19 226c17-43 46-77 79-108 12-11 25-22 37-33 17-16 22-36 14-58-6-20-14-40-21-60-6-16-3-27 13-33 25-10 50-19 75-29 7-2 15-4 21 2 5 4 9 10 11 16 8 18 15 37 22 55 11 25 29 34 55 28 22-4 44-8 65-10 51-5 102-2 152 4 33 5 50-6 61-37 6-15 11-30 18-44 6-15 16-19 30-14 24 9 48 18 72 28 18 6 23 18 16 36-4 9-7 19-10 28-10 32-3 52 26 69 55 32 96 76 123 134 5 12 13 22 24 28 21 12 44 14 67 12 21-3 31 5 31 27 0 12 0 24 0 37 0 23 0 45-1 68-1 17-8 24-25 25-12 2-25 2-37 3-31 3-46 15-55 44-1 3-1 6-2 9-16 67-51 121-114 155-7 4-11 8-10 17 0 6-1 13-2 19-7 35-13 71-19 106-3 15-7 29-10 44-2-1-3-1-4-1-44-20-79-49-100-93-13-24-27-31-53-27-31 5-63 10-95 14-15 2-31 1-48 2 31-58 39-118 22-180-16-62-53-110-107-144-47-30-98-41-152-35-73 7-130 42-174 100-1-3-1-4-2-6-8-36-11-72-9-108 1-31 4-62 16-90z m733 223c26 0 48-22 48-50-1-28-21-49-49-49-27 0-49 22-49 50 0 27 23 50 50 49z m-742 123c0-111 90-202 200-203 113 0 203 89 203 201 1 112-89 202-201 203-111 0-201-90-202-201z m255 95c10-3 10-3 7-14-2-9-4-17-7-27-3 2-6 3-9 4-14 6-29 8-44 7-4-1-8-2-12-4-9-5-11-17-3-24 6-4 13-8 20-11 10-5 21-9 31-14 26-12 38-31 36-55-3-27-18-44-43-53-3-1-5-2-7-2-7 0-8-4-7-9 0-6-1-11 0-16 1-8-3-10-10-9-7 0-14 0-22 0 0 10 0 20 0 29-15 3-30 6-44 10-12 4-11 4-8 17 2 8 4 17 6 24 16-4 31-8 46-11 8-1 18 0 26 3 15 5 18 21 4 31-7 5-16 8-25 12-12 6-24 10-35 17-31 21-31 64 0 86 9 6 20 10 31 16 0 8 0 17 0 27 11 0 21 0 32 0 0-9 0-18 0-26 13-3 25-5 37-8z" horiz-adv-x="1000" />

<glyph glyph-name="pago-tarjeta-focus" unicode="&#xe850;" d="M190 446c182 0 365 0 550 0 0 9 0 15 0 20 1 47 1 47-45 47-151 0-301 0-452 0-60 0-59 13-56-63 0-1 2-2 3-4z m396-264c0-62 50-113 112-113 64-1 115 48 116 112 0 63-49 114-113 114-64 0-115-49-115-113z m203 48c-29-43-58-84-89-128-29 26-57 51-86 78 11 11 20 21 31 33 15-14 30-27 47-43 20 29 39 56 60 86 14-10 25-17 37-26z m-572-45c103 1 207 1 310 1 7 0 15 1 22 1 5 49 24 88 62 116 38 27 81 34 128 24 0 13 0 22 0 33-184 0-367 0-553 0 0-49 1-97-1-145 0-24 9-30 32-30z m283-335c275 0 499 223 499 498 0 276-224 499-499 499-275 0-498-223-498-499 0-275 223-498 498-498z m-284 698c82 0 165 0 247 0 84 0 167 0 251 0 44 0 63-18 63-62 0-51-1-102 1-154 0-10 6-24 14-31 50-43 71-107 51-166-20-59-76-101-138-102-67-2-123 36-146 100-5 16-14 17-28 17-106 0-212 0-318 0-47 0-63 17-63 64 0 90 0 180 0 269 0 50 16 65 66 65z" horiz-adv-x="1000" />

<glyph glyph-name="codigo-focus" unicode="&#xe851;" d="M500-147c274 0 496 222 496 496 0 274-222 496-496 496-274 0-496-222-496-496 0-274 222-496 496-496z m195 544l53-18v56h44v-56l51 18 16-41-52-22 33-45-35-26-35 46-34-46-36 26 32 47-51 20 14 41z m-269 0l53-18v56h43v-56l51 18 16-41-51-22 32-45-34-26-35 46-35-46-36 26 33 47-52 20 15 41z m-270 0l53-18v56h44v-56l51 18 16-41-51-22 32-45-35-26-35 46-34-46-36 26 32 47-51 20 14 41z" horiz-adv-x="1000" />

<glyph glyph-name="1-dia" unicode="&#xe852;" d="M238 128c9-7 19-11 31-11 154 0 308 0 462 0 3 0 7 0 10 1 16 3 27 11 32 27 2 3 2 8 2 12 0 123 0 247 0 371 0 10-3 19-10 27-9 7-18 12-29 12-14 0-28 0-41 0h-5v4 26c0 10-3 19-10 27-8 9-18 16-31 18-10 1-19 1-29 1-17 0-31-4-43-16-7-7-12-15-13-25 0-10 0-21 0-31v-4h-127v4 26c-1 10-4 19-10 26-9 10-20 17-33 19-9 1-18 1-27 1-14 0-27-2-38-11-8-6-14-14-17-23-2-4-2-9-2-13 0-9 0-17 0-25v-4h-42c-8 0-17-1-24-6-9-6-15-13-18-24-1-3-1-6-1-9v-371c0-8 2-15 6-21 2-3 4-6 7-8z m378 476c7 1 15 1 22 0 7 0 10-3 10-10l-9-92c-8-1-16 0-23 0-6 0-10 5-10 10v41 41c0 6 4 10 10 10z m-264-47c0 12 0 24 0 36 0 7 4 12 11 12h21c6 0 11-4 11-11-1-14-1-28-1-41 0-13 0-27 1-41 0-7-5-10-11-10-7 0-15 0-22 0-6-1-10 4-10 10 0 15 0 30 0 45z m-85-102h466v-301h-466v301z m233-605c276 0 500 224 500 499s-224 500-500 500c-276 0-500-224-500-500 0-275 224-499 500-499z m0 965c257 0 466-209 466-466s-209-465-466-465c-257 0-466 209-466 465 0 257 209 466 466 466z m-44-435l9-40 24 12v-104h47v152h-36z" horiz-adv-x="1000" />

<glyph glyph-name="solicitado-1" unicode="&#xe853;" d="M17 321c38-6 76-13 115-20 8-1 15 5 15 14-5 172 69 295 233 358 103 40 203 27 302-30 8-5 9-15 3-21-21-22-41-42-61-61-7-8-3-21 8-22 98-14 198-28 299-42 9-1 16 6 15 15-14 99-28 196-42 292-17 5-19 6-37 11-21-25-42-49-62-73-5-5-12-6-17-3-7 4-11 7-15 10-83 54-174 82-273 82-233 2-428-151-481-378-6-22-9-45-13-68 0-1 0-1 0-2v-49c0-6 5-12 11-13z m832 56c7-159-58-278-205-347-110-52-219-43-328 18-8 4-9 14-3 21 21 21 41 42 60 63 8 8 3 20-8 22-98 13-199 27-300 42-9 1-16-7-15-15 15-100 28-197 42-293 17-5 19-6 36-11 21 25 42 50 63 74 4 5 11 6 17 2 8-5 14-9 20-12 275-179 644-49 739 261 11 34 15 70 23 105 0 0 0 1 0 2v49c0 6-5 12-11 13-38 6-76 13-115 19-8 2-15-5-15-13z" horiz-adv-x="1000" />

<glyph glyph-name="resuelto" unicode="&#xe854;" d="M985 610c-31 32-64 63-94 96-14 16-22 14-35 0-156-156-311-311-466-467-14-14-20-13-33 0-71 73-144 144-216 217-14 15-23 14-36 0-30-32-61-63-92-92-13-13-15-21-1-35 115-114 229-228 343-343 14-14 22-15 37 0 118 119 237 238 356 356 78 79 157 157 235 236 5 5 12 9 13 17-1 7-6 11-11 15z" horiz-adv-x="1000" />

<glyph glyph-name="numero-casas" unicode="&#xe855;" d="M499 844c-272 0-493-221-493-494 0-271 221-493 493-493s493 222 493 493c0 273-221 494-493 494z m0-953c-253 0-459 206-459 459 0 254 206 460 459 460s459-206 459-460c0-253-206-459-459-459z m214 426c-70 57-139 114-209 172-6 5-4 5-11 0-70-58-139-115-209-172-3-3-4-6-4-10 0-58 0-116 0-174 0-18 10-28 28-28 45 0 91 0 136 0 2 0 4 0 6 0 0 49 0 97 0 145 32 0 64 0 97 0 0-48 0-97 0-145 2 0 3 0 4 0 47 0 93 0 139 0 16 0 27 10 27 26 0 59 0 118 0 176 0 5-1 7-4 10z m86 38c-1 1-3 3-4 4-25 21-49 41-74 61-3 3-4 5-4 8 0 49 0 98 0 146 0 12-4 17-16 17-21 0-43 0-65 0-12 0-16-4-16-17 0-21 0-42 0-63 0-2 0-4 0-6-2 1-4 2-5 3-28 24-57 48-86 72-10 9-22 12-35 11-13-1-22-7-31-15-54-45-108-90-162-135-34-28-67-56-101-84-9-8-9-14-2-23 6-7 13-14 19-22 7-9 13-9 22-2 60 50 120 100 180 150 26 22 53 44 80 67 4-4 8-7 11-10 59-49 118-98 178-148 24-20 48-40 72-60 7-5 13-6 19 1 8 9 16 18 23 27 4 6 3 12-3 18z" horiz-adv-x="1000" />

<glyph glyph-name="nombre-calle" unicode="&#xe856;" d="M501 843c-272 0-493-222-493-494 0-271 221-493 493-493 272 0 493 222 493 493 0 272-221 494-493 494z m0-953c-253 0-459 206-459 459 0 254 206 460 459 460 253 0 459-206 459-460 0-253-206-459-459-459z m182 484c-6 6-16 10-25 10-39 1-77 1-116 1-5 0-10 0-15 0 0 14 0 26 0 39 28 0 54 0 81 0 22 0 29 7 30 29 0 49 0 97 0 145 0 23-7 30-30 30-27 0-54 0-81 0-3 18 4 38-16 48-5 0-10 0-15 0-21-10-12-32-16-48-45 0-88 0-131-1-8 0-17-3-22-7-27-25-52-51-77-77-12-12-11-23 0-34 25-26 50-51 76-76 5-5 14-8 22-8 39-1 78-1 117-1 5 0 10 0 16 0 0-13 0-25 0-39-6 0-11 0-16 0-23 0-46 0-70 0-17 0-25-8-25-25 0-51 0-102 0-153 0-18 9-26 26-26 19 0 38 0 57 0 9 0 19 0 29 0 0-7 0-13 0-18 0-38-1-76 0-114 0-15 9-24 22-24 12 0 22 9 22 23 0 21 0 42 0 63 0 23 0 46 0 70 6 0 11 0 16 0 38 0 77 0 115 1 9 0 19 4 26 10 25 23 48 48 73 73 14 13 14 24 0 38-24 23-48 48-73 71z m-317 94c-7 0-16 4-21 9-17 15-32 31-50 49 19 18 36 35 53 52 4 3 9 5 13 5 75 0 151 0 226 0 1 0 3 0 5-1 0-37 0-75 0-114-5 0-10 0-14 0-71 0-141 0-212 0z m290-240c-2-2-6-3-9-3-76 0-151 0-227 0-1 0-2 1-5 2 0 37 0 74 0 112 5 1 9 1 13 1 71 0 143 0 214 0 7 0 15-4 20-8 17-16 32-32 49-49-18-18-36-37-55-55z" horiz-adv-x="1000" />

<glyph glyph-name="cuadra-1" unicode="&#xe857;" d="M501 843c-272 0-493-221-493-494 0-272 221-493 493-493 272 0 494 221 494 493 0 273-222 494-494 494z m0-953c-253 0-459 206-459 459 0 254 206 460 459 460 254 0 460-206 460-460 0-253-206-459-460-459z m298 306c-15 13-30 26-46 39-3 3-5 6-4 10 0 15 0 30 0 44 0 8-3 11-11 11-5 0-11 0-16 0-8 0-11-3-11-11 0-5 0-10 0-17-3 3-5 4-7 6-14 12-27 24-41 36-8 7-10 7-18 0-45-39-89-77-133-115-14-12-14-12-2-25 8-9 11-9 20-1 40 34 80 68 119 103 4 3 6 4 10 0 15-14 31-27 47-41 25-21 49-43 74-64 6-6 10-5 16 1 3 4 7 8 10 11 0 2 0 4 0 5-2 3-4 6-7 8z m-302-110c-33 42-65 84-97 125-56 72-111 144-166 216-2 2-4 5-7 5-10 1-20 1-31 1 2-3 2-5 3-6 63-116 126-231 190-347 3-6 8-8 14-8 19 0 39 0 58 0 11 0 22 0 33 0 2 0 5 1 6 3 1 2 0 5-1 7 0 1-2 2-2 4z m254 82c-33 27-65 55-97 83-1 0-1 0-1-1-37-31-74-63-111-95-1-1-2-3-2-5 0-20 0-40 0-60 0-10 7-17 17-18 22 0 44 0 67 0 0 0 0 1 1 1 0 2 0 4 0 7 0 20 0 40 0 61 0 6 2 8 7 7 15 0 29 0 43 0 7 0 7 0 7-8 0-20 0-41 0-61 0-3 1-5 1-6 1-1 2-1 2-1 21 0 41 0 62 0 13 0 21 8 21 21 0 12-2 25 0 37 2 16-4 27-17 38z m-245 172c0-14 0-28 0-42 0-6 0-11 0-17 19 0 36 0 54 0 11 0 17 7 18 19 0 13-1 25 0 38 0 6-2 9-6 12-23 20-45 39-67 59-8 6-15 13-23 19-31-27-61-54-92-80-1-2-2-4-2-6-1-15-1-30 0-45 0-8 6-15 14-15 18-1 37-1 56-1 0 21 0 40 0 59 0 7 2 8 8 8 11 0 22 0 32 0 7 0 8-1 8-8z m-188 170c7 0 14 0 22 0 9 0 9 0 9-10 0-15 0-31 0-47 3 0 4 0 5 0 13 0 26 0 38 0 9 0 14 5 14 13 0 12 0 24 0 36 0 2-1 5-3 6-23 20-47 40-70 60-2 2-4 3-6 0-24-20-47-40-71-61-1-1-2-3-2-5 0-12 0-24 0-37 0-6 5-12 11-12 15 0 30 0 46 0 0 2 0 4 0 6 0 15 0 29 0 44-1 6 2 7 7 7z m39-147c7-7 9-7 16-1 27 23 53 46 80 69 9 8 19 17 29 25 3-2 4-3 6-5 33-29 67-57 100-86 11-10 12-10 22 1 7 8 7 10-1 17-15 13-31 27-47 41-2 2-4 5-4 8 0 10 0 21 0 31 0 18 0 18-18 18-7 0-10-3-10-10 0-6 0-12 0-19-3 2-4 3-6 4-11 10-22 20-33 29-8 7-10 7-17 0-39-33-77-66-116-100-12-10-12-10-1-22z m-111 162c27 23 53 45 79 68 2 1 3 3 5 4 2-1 3-2 4-3 26-23 53-46 79-69 9-7 10-7 17 1 6 6 6 8 0 13-10 9-20 17-29 25-3 3-5 6-5 10 1 11 0 22 1 33 0 5-3 8-8 8-4 0-9 0-13 0-5 0-8-3-8-8 0-4 0-9 0-14-11 9-20 18-30 26-8 7-8 7-16 0-7-6-15-13-23-20-23-20-46-40-69-60-2-2-5-5-4-7 2-11 13-14 20-7z" horiz-adv-x="1000" />

<glyph glyph-name="secciones" unicode="&#xe858;" d="M503 845c-272 0-493-222-493-494s221-493 493-493 493 221 493 493-221 494-493 494z m0-953c-254 0-460 206-460 459s206 460 460 460 460-206 460-460-207-459-460-459z m-46 707c-4 2-9 3-13 4-53 0-106 0-160 0 0 0-1 0-1 0-18-3-32-19-32-37 0-51 0-101 0-151 0-21 17-38 38-38 50 0 101 0 151 0 21 0 38 17 38 37 0 51 0 101 0 152 0 15-8 26-21 33z m-4-171c0-15-11-26-27-26-21 0-41 0-62 0-20 0-41 0-61 0-16 0-27 11-27 27 0 41 0 82 0 123 0 15 11 26 27 26 41 0 82 0 123 0 16 0 26-11 26-26 1-42 1-83 1-124z m270 175c0 0-1 0-1 0-54 0-107 0-160 0-1 0-1 0-2 0-19-3-32-19-32-38 0-50 0-100 0-150 0-22 17-38 38-39 50 0 101 0 151 0 17 0 32 12 37 28 0 2 1 4 1 6 0 53 0 106 0 160 0 2-1 3-1 5-5 16-15 25-31 28z m7-175c0-15-11-26-27-26-41 0-82 0-123 0-16 0-26 11-26 26 0 42 0 83 0 124 0 15 10 26 26 26 21 0 41 0 62 0 20 0 41 0 61 0 16 0 27-10 27-27 0-41 0-82 0-123z m-13-102c-51 0-101 0-151 0-21 0-38-16-38-37 0-51 0-101 0-152 0-21 17-37 38-38 50 0 101 0 151 0 17 0 32 12 37 28 0 2 1 4 1 6 0 53 0 107 0 160 0 0 0 1 0 1-4 19-19 32-38 32z m13-175c0-15-11-26-27-26-41 0-82 0-123 0-16 0-27 11-27 26 0 21 0 42 0 62 0 21 0 41 0 61 0 16 11 27 27 27 41 0 82 0 123 0 16 0 27-11 27-26 0-42 0-83 0-124z m-291 175c-49 0-99 0-149 0-22 0-39-16-39-39 0-49 0-99 0-148 0-23 17-39 39-39 50 0 99 0 149 0 23 0 39 16 39 39 0 24 0 49 0 74 0 25 0 50 0 75 0 22-17 38-39 38z m14-175c0-16-11-26-27-26-41 0-82 0-123 0-16 0-27 10-27 26 0 41 0 82 0 123 0 16 11 27 27 27 21 0 41 0 62 0 20 0 41 0 61 0 16 0 27-11 27-27 0-41 0-82 0-123z" horiz-adv-x="1000" />

<glyph glyph-name="no-disponible-1" unicode="&#xe859;" d="M482 843c-257-9-477-234-472-489-3-283 235-506 512-497 259 9 477 235 474 492-3 285-240 504-514 494z m20-889c-219 0-395 178-396 400 0 216 179 392 397 393 219 0 396-178 396-397 0-216-181-396-397-396z m221 509c-8 4-23-2-34-7-54-23-108-48-166-74 0 70 1 136 0 201 0 29-13 45-36 45-24-1-38-17-38-44-1-86-1-171 0-256 0-5 0-9 0-13 4-28 29-44 53-33 78 36 156 73 232 112 10 5 20 26 18 37-3 12-17 26-29 32z" horiz-adv-x="1000" />

<glyph glyph-name="numero-casas-focus" unicode="&#xe85a;" d="M500-150c275 0 498 223 498 498 0 276-223 499-498 499s-499-223-499-499c0-275 223-498 499-498z m218 282c0-16-10-27-26-27-46 0-93 0-139 0-1 0-3 0-5 1 0 48 0 96 0 145-32 0-64 0-97 0 0-49 0-97 0-145-2-1-4-1-5-1-46 0-91 0-137 0-18 0-28 10-28 28 0 58 0 117 0 175 0 4 1 7 5 10 69 57 139 114 208 172 7 5 5 5 12 0 69-58 139-115 208-172 3-3 5-5 5-10-1-59-1-117-1-176z m-517 225c33 29 67 57 101 85 54 45 108 90 162 135 9 7 18 14 31 15 13 1 25-2 35-11 29-24 57-48 86-72 1-1 3-2 5-4 0 3 0 5 0 6 0 22 0 43 0 64 0 12 4 16 16 16 22 0 43 0 65 0 12 0 16-4 16-16 0-49 0-97 0-146 0-4 1-6 4-8 24-20 49-41 73-61 2-2 4-3 5-4 6-6 7-12 2-18-7-10-15-19-23-28-5-6-12-6-19 0-24 20-48 40-72 60-59 49-118 98-177 148-4 3-8 6-12 9-27-22-54-45-80-67-60-49-120-99-180-149-9-8-15-7-22 2-6 7-13 15-19 22-7 9-6 15 3 22z" horiz-adv-x="1000" />

<glyph glyph-name="nombre-calle-focus" unicode="&#xe85b;" d="M411 338c0-39 0-76 0-114 3-1 4-1 4-1 77-1 153-1 230-1 3 0 7 1 9 3 19 18 37 37 56 56-17 17-33 34-50 49-5 5-13 8-20 8-72 1-144 1-217 1-4-1-8-1-12-1z m-71 139c5-5 14-9 21-9 71 0 143 0 214 0 5 0 9 0 14 0 0 40 0 77 0 115-2 1-4 1-5 1-76 0-152 0-228 0-5 0-10-2-13-5-18-17-35-34-54-53 18-17 34-34 51-49z m160-627c275 0 499 223 499 499s-224 498-499 498-499-223-499-498 224-499 499-499z m-257 693c26 27 51 53 78 78 5 5 15 8 22 8 44 1 88 0 133 0 5 17-5 39 17 49 5 0 9 0 14 0 21-10 13-31 16-49 28 0 55 0 83 0 22 0 29-7 29-30 0-48 0-97 0-146 0-23-7-30-30-30-26 0-53 0-82 0 0-13 0-25 0-39 6 0 11 0 16 0 39 0 78 0 117-1 9 0 19-4 26-10 25-24 49-48 73-73 14-14 14-25 0-39-25-24-49-49-74-73-7-6-17-10-26-10-39-2-78-1-117-1-5 0-9 0-16 0 0-24 0-48 0-71 0-21 1-42 0-63 0-14-10-24-22-24-13 0-22 10-22 24-1 39-1 77-1 116 0 5 0 11 0 18-10 0-20 0-29 0-19 0-38 0-57 0-18 0-26 8-26 26-1 52-1 104 0 155 0 18 8 25 25 25 24 1 47 0 70 1 6 0 11 0 17 0 0 14 0 25 0 39-6 0-11 0-16 0-40 0-80 0-119 1-8 0-17 3-22 8-26 25-52 51-77 77-11 12-11 23 0 34z" horiz-adv-x="1000" />

<glyph glyph-name="cuadra" unicode="&#xe85c;" d="M501 848c-275 0-498-223-498-499 0-275 223-498 499-498s498 223 498 498c0 276-223 499-499 499z m-10-359c11-10 23-20 34-30 1-1 3-2 6-4 0 7 0 13 0 19 0 7 2 10 10 10 18 0 18 0 18-18 0-10 0-21 0-31 0-3 2-7 4-9 16-14 32-27 48-41 8-7 8-9 1-17-11-11-11-11-23-1-33 29-67 58-100 87-2 2-4 3-7 5-10-8-20-17-29-26-27-23-54-46-80-69-8-6-10-6-17 1-11 12-11 12 1 22 39 34 78 68 117 102 7 6 9 6 17 0z m-182-27c0-2 0-4 0-6-16 0-31-1-46 0-7 0-11 6-11 13 0 12 0 24 0 36 0 2 1 4 2 5 24 21 48 42 71 63 3 2 5 1 7-1 24-20 47-40 71-61 1-1 2-4 2-6 1-12 1-24 0-36 0-8-5-13-13-13-13-1-26 0-39 0-1 0-2 0-5 0 0 16 0 32 0 47 0 10 0 10-10 10-7 0-14 0-22 0-5 1-7-1-7-7 0-15 0-29 0-44z m-81 81c23 20 46 40 69 60 8 7 16 14 24 20 7 7 8 7 15 0 10-8 20-17 31-26 0 5 0 10 0 14 0 5 3 8 8 8 4 0 9 0 13 0 5 0 8-3 8-8 0-11 0-22 0-33-1-5 1-7 4-10 10-8 20-17 29-25 6-6 6-7 1-13-8-9-9-9-17-1-27 23-54 46-80 69-2 1-3 2-4 3-2-1-4-3-6-4-26-23-52-46-79-69-8-7-19-3-21 7 0 2 3 6 5 8z m272-469c-1-1-4-3-6-3-11 0-22 0-33 0-20 0-39 0-58 0-7 0-12 2-15 8-64 117-128 234-192 350 0 2-1 3-3 6 12 0 22 1 32 0 2 0 5-3 6-5 56-73 112-146 168-218 32-42 65-85 98-127 1-1 2-2 2-4 1-2 2-5 1-7z m-1 276c-11 0-22 0-33 0-7 0-8-2-8-8 0-19 0-39 0-59-19 0-38-1-57 0-8 0-14 7-14 15-1 16-1 31 0 46 0 2 1 4 2 5 31 27 62 54 93 82 8-7 15-13 23-20 22-20 45-39 68-59 4-3 6-7 6-12-1-13 0-26-1-39 0-12-6-18-18-18-17 0-35 0-53 0 0 6 0 11 0 16 0 14 0 29 0 43 0 6-1 8-8 8z m272-221c-1-12 0-25 0-37 0-14-7-21-21-21-21 0-42 0-62 0-1 0-2 0-3 0 0 2 0 4 0 6 0 21 0 42 0 63 0 7-1 8-8 8-14 0-29 0-43 0-5 0-7-2-7-8 0-20 0-41 0-62 0-2 0-4 0-6-1 0-1-1-2-1-22 0-44 0-67 0-10 0-17 8-17 18-1 20-1 41 0 61 0 2 1 4 2 5 37 32 74 64 112 96 0 0 0 1 1 1 33-28 65-57 98-84 13-11 19-22 17-39z m39 55c-4-4-8-8-11-12-6-6-10-7-16-1-25 22-50 43-75 65-16 14-32 27-48 41-4 4-6 3-9 0-40-35-80-70-121-104-9-8-12-8-20 1-12 13-12 13 2 25 45 39 89 77 134 116 8 7 10 7 19 0 14-12 27-24 41-36 2-2 4-3 7-6 0 7 0 12 0 17 1 8 3 11 11 11 6 0 11 0 17 0 7 0 10-3 10-11 0-14 0-29 0-44 0-5 2-7 5-10 15-13 31-27 46-40 3-2 5-5 7-8 1-1 1-3 1-4z" horiz-adv-x="1000" />

<glyph glyph-name="secciones-focus" unicode="&#xe85d;" d="M298 120c41 0 83 0 124 0 16 0 27 10 27 27 0 41 0 83 0 124 0 16-11 27-27 27-21 0-41 0-62 0-21 0-41 0-62 0-17 0-27-11-27-27 0-41 0-83 0-124 0-16 10-27 27-27z m405 178c-42 0-83 0-125 0-16 0-27-11-27-27 0-21 0-41 0-62 0-21 0-42 0-63 0-15 11-26 27-26 41 0 83 0 125 0 16 0 27 11 27 27 0 41 0 83 0 124-1 16-11 27-27 27z m-405 102c20 0 41 0 62 0 21 0 41 0 62 0 16 0 27 11 27 27 0 41 0 83 0 125 0 16-11 27-27 27-41 0-83 0-124 0-17 0-27-11-27-27 0-42 0-83 0-125 0-16 10-27 27-27z m202-550c276 0 499 223 499 499s-223 499-499 499-499-223-499-499 223-499 499-499z m255 278c0-2-1-4-1-5-5-17-20-29-37-29-51 0-102 0-153 0-22 0-38 17-38 38 0 51 0 102 0 153 0 22 17 39 38 39 51 0 102 0 152 0 20 0 36-14 39-33 0 0 0-1 0-1 0-54 0-108 0-162z m-197 476c0 0 1 0 1 0 54 0 108 0 162 0 0 0 1 0 1 0 16-3 27-13 31-28 1-2 1-4 2-6 0-54 0-108 0-162-1-1-1-3-2-5-4-17-19-28-36-28-51 0-102 0-153 0-22 0-39 17-39 38 0 51 0 102 0 152 0 20 14 35 33 39z m-313-38c0 19 14 35 33 38 0 0 1 0 1 0 54 0 108 0 162 0 4-1 8-2 12-4 14-7 21-19 21-34 1-51 1-102 0-153 0-21-17-38-37-38-52 0-103 0-154 0-21 0-38 17-38 38 0 51 0 102 0 153z m0-282c0 23 17 40 39 40 51 0 101 0 151 0 23 0 39-17 39-40 0-25 0-50 0-75 0-25 0-50 0-75 0-23-16-39-39-39-50 0-100 0-151 0-22 0-39 16-39 39 0 50 0 100 0 150z m333 116c42 0 83 0 125 0 16 0 27 11 27 27 0 42 0 83 0 125 0 16-11 27-28 27-20 0-41 0-62 0-21 0-41 0-62 0-16 0-27-11-27-27 0-42 0-83 0-125 0-16 11-27 27-27z" horiz-adv-x="1000" />

<glyph glyph-name="no-disponible" unicode="&#xe85e;" d="M501 848c-279 0-499-227-499-499 0-270 217-499 499-499 276 0 498 222 499 499-1 274-221 499-499 499z m197-801c-47-31-98-50-153-56-15-2-29-3-44-3-90 1-169 30-237 89-61 53-100 120-117 200-5 25-7 50-7 75 1 54 13 106 36 154 7 14 15 28 23 41 5 6 4 6 9 1 74-75 149-149 223-223 90-90 179-179 268-269 6-6 6-4-1-9z m107 108c-3-5-3-5-8 0-164 163-328 327-491 491-4 4-4 4 1 7 46 29 96 47 150 54 63 8 124 0 182-25 38-15 72-37 102-64 34-30 61-65 82-106 18-36 30-75 35-115 2-16 4-32 4-47-1-71-19-135-57-195z" horiz-adv-x="1000" />

<glyph glyph-name="reglamento-mini" unicode="&#xe85f;" d="M792 572c54 28 78 80 81 149-42 0-81 0-120 0-2 13-3 20-3 27-4 86-17 97-103 98-104 0-207 0-310-1-62 0-82-19-85-79 0-14-2-27-4-47-41 0-79 0-121 0 6-69 32-120 86-148 45-25 43-56 34-102-39 0-78 0-117 0 7-73 28-120 83-148 45-24 43-56 35-102-40 0-79 0-120 0 5-75 38-123 96-159 18-12 37-30 45-50 40-97 128-160 231-160 104-1 193 62 234 162 8 18 25 36 42 47 58 37 95 85 97 163-42 0-81 0-118 0-10 46-7 76 37 101 52 29 81 79 81 149-42 0-81 0-118 0-12 47-8 76 37 100z m-287-539c-57-2-101 39-102 94-1 54 39 96 93 98 57 2 101-39 102-94 1-54-39-96-93-98z m-6 250c-54 1-95 41-96 95-1 56 42 98 99 97 54-1 96-41 96-95 1-56-42-98-99-97z m0 250c-54 1-95 41-96 95-1 56 42 98 99 97 54-1 96-41 96-95 1-56-42-98-99-97z" horiz-adv-x="1000" />

<glyph glyph-name="opciones-usuario" unicode="&#xe860;" d="M500-148c275 0 498 223 498 498 0 275-223 498-498 498-275 0-498-223-498-498 0-275 223-498 498-498z m316 263c-1-20-16-35-38-38-5-1-10-1-15-1-175 0-350 0-524 0-29 0-47 7-50 27-5 20-4 42-1 62 4 18 21 27 44 27 90 0 180 0 270 0 88 0 176 0 264 0 33 0 50-15 50-44 0-11 0-22 0-33z m-631 441c1 7 0 15 0 22 0 30 17 46 52 46 88 0 176 0 264 0 88 0 176 0 264 0 33 0 51-16 51-45 0-9 0-19 0-29 0-27-18-43-49-43-34-1-68 0-102 0-142 0-283 0-424-1-31 1-59 14-56 50z m0-213c1 9 0 18 0 27 1 24 19 40 46 40 90 0 180 0 269 0 89 0 177 0 265 0 33 0 51-15 51-44 0-10 0-21 0-32-1-23-17-38-43-40-5-1-10-1-16-1-172 0-343 1-515 0-32 0-60 13-57 50z" horiz-adv-x="1000" />

<glyph glyph-name="7-dias" unicode="&#xe861;" d="M760 557c-9 8-18 12-29 13-14 0-28 0-41 0h-4v3 27c0 10-4 19-11 26-8 10-18 16-31 18-9 2-19 1-29 1-16 1-31-4-42-16-7-7-12-14-13-24-1-11 0-21-1-32v-3h-127v3 26c0 10-3 19-9 27-9 10-20 17-33 18-9 2-18 1-27 2-14 0-27-3-38-12-8-6-14-13-17-22-1-4-2-9-2-14 0-8 0-16 0-25v-3h-41c-9 0-17-2-25-6-9-6-15-14-17-24-1-3-1-7-1-10v-371c0-8 1-15 6-21 2-3 4-6 6-7 9-8 20-12 32-12 153 1 307 0 460 1 4 0 7 0 11 0 15 3 27 12 32 27 1 4 1 8 1 12v371c0 11-3 20-10 27z m-159-2v41c0 7 5 11 11 11 7 0 14 0 22 0 6 0 10-4 10-10v-82c0-8-5-11-10-11-8 0-16 0-23 0-6 0-10 5-10 10 1 14 0 27 0 41z m-253 4c0 13 0 25 0 37 0 7 4 11 11 11h21c6 0 11-4 11-11-1-13 0-27 0-40 0-14-1-28 0-41 0-7-5-11-10-11-8 0-15 0-22 0-6 0-11 5-11 11 0 15 0 29 0 44z m380-402h-464v300h464v-300z m-227 693c-276 0-500-224-500-500 0-276 224-500 500-500s499 224 499 500c0 276-224 500-499 500z m0-966c-257 0-466 209-466 466s209 466 466 466c256 0 465-209 465-466s-209-466-465-466z m-60 364h52l59 122v30h-112v-42h58z" horiz-adv-x="1000" />

<glyph glyph-name="legal" unicode="&#xe862;" d="M948 390c-35 108-100 164-190 167-47 2-89-10-125-34-48-33-78-80-89-140h-88c-31 108-94 168-184 174-48 3-89-7-126-30-50-31-81-77-95-137-27-2-50-8-51-36-1-29 22-36 51-40 38-110 101-164 193-167 46-1 88 10 124 35 48 33 77 80 88 139h88c15-52 38-93 67-122 31-31 71-48 117-51 6-1 12-1 17-1 40 0 75 10 107 29 50 31 83 77 97 138 16-1 38 2 50 26l1 2v20l-1 3c-11 24-33 26-51 25z m-593-141c-28-26-64-41-103-41 0 0 0 0 0 0-79 0-143 65-143 144 0 39 15 75 42 102 27 27 63 42 103 42 0 0 0 0 0 0 38 0 74-15 101-42 27-27 42-64 42-102 0-39-15-75-42-103z m494 1c-27-27-64-42-103-42 0 0 0 0 0 0-79 0-143 65-143 144 0 39 15 75 42 102 27 27 63 42 103 42 0 0 0 0 0 0 79 0 143-65 143-144 0-39-15-75-42-102z" horiz-adv-x="1000" />

</font>
</defs>
</svg>
